<mxfile host="app.diagrams.net" modified="2021-10-20T21:32:36.093Z" agent="5.0 (Windows NT 10.0; Win64; x64) AppleWebKit/537.36 (KHTML, like Gecko) Chrome/94.0.4606.81 Safari/537.36" etag="clsPmsJkBDXC4LARBtPc" version="15.5.7" type="github" pages="2">
  <diagram id="woVYtAB0GciuImO5hciX" name="problem4">
    <mxGraphModel dx="1505" dy="826" grid="1" gridSize="10" guides="1" tooltips="1" connect="1" arrows="1" fold="1" page="1" pageScale="1" pageWidth="827" pageHeight="583" math="0" shadow="0">
      <root>
        <mxCell id="0" />
        <mxCell id="1" parent="0" />
        <mxCell id="FBOypV3YJuFM0SSWteNj-13" style="edgeStyle=none;rounded=0;orthogonalLoop=1;jettySize=auto;html=1;entryX=-0.1;entryY=0.908;entryDx=0;entryDy=0;entryPerimeter=0;" edge="1" parent="1" source="FBOypV3YJuFM0SSWteNj-1" target="FBOypV3YJuFM0SSWteNj-2">
          <mxGeometry relative="1" as="geometry" />
        </mxCell>
        <mxCell id="FBOypV3YJuFM0SSWteNj-14" style="edgeStyle=none;rounded=0;orthogonalLoop=1;jettySize=auto;html=1;entryX=0;entryY=0.5;entryDx=0;entryDy=0;" edge="1" parent="1" source="FBOypV3YJuFM0SSWteNj-1" target="FBOypV3YJuFM0SSWteNj-3">
          <mxGeometry relative="1" as="geometry" />
        </mxCell>
        <mxCell id="FBOypV3YJuFM0SSWteNj-15" style="edgeStyle=none;rounded=0;orthogonalLoop=1;jettySize=auto;html=1;entryX=0;entryY=0;entryDx=0;entryDy=0;" edge="1" parent="1" source="FBOypV3YJuFM0SSWteNj-1" target="FBOypV3YJuFM0SSWteNj-5">
          <mxGeometry relative="1" as="geometry" />
        </mxCell>
        <mxCell id="FBOypV3YJuFM0SSWteNj-19" style="edgeStyle=none;rounded=0;orthogonalLoop=1;jettySize=auto;html=1;entryX=0;entryY=0.5;entryDx=0;entryDy=0;" edge="1" parent="1" source="FBOypV3YJuFM0SSWteNj-1" target="FBOypV3YJuFM0SSWteNj-8">
          <mxGeometry relative="1" as="geometry" />
        </mxCell>
        <mxCell id="FBOypV3YJuFM0SSWteNj-1" value="E" style="ellipse;whiteSpace=wrap;html=1;aspect=fixed;" vertex="1" parent="1">
          <mxGeometry x="10" y="240" width="30" height="30" as="geometry" />
        </mxCell>
        <mxCell id="FBOypV3YJuFM0SSWteNj-16" style="edgeStyle=none;rounded=0;orthogonalLoop=1;jettySize=auto;html=1;entryX=0;entryY=0;entryDx=0;entryDy=0;" edge="1" parent="1" source="FBOypV3YJuFM0SSWteNj-2" target="FBOypV3YJuFM0SSWteNj-7">
          <mxGeometry relative="1" as="geometry" />
        </mxCell>
        <mxCell id="FBOypV3YJuFM0SSWteNj-23" style="edgeStyle=none;rounded=0;orthogonalLoop=1;jettySize=auto;html=1;entryX=0;entryY=0.5;entryDx=0;entryDy=0;" edge="1" parent="1" source="FBOypV3YJuFM0SSWteNj-2" target="FBOypV3YJuFM0SSWteNj-6">
          <mxGeometry relative="1" as="geometry" />
        </mxCell>
        <mxCell id="FBOypV3YJuFM0SSWteNj-2" value="A" style="ellipse;whiteSpace=wrap;html=1;aspect=fixed;" vertex="1" parent="1">
          <mxGeometry x="120" y="130" width="30" height="30" as="geometry" />
        </mxCell>
        <mxCell id="FBOypV3YJuFM0SSWteNj-18" style="edgeStyle=none;rounded=0;orthogonalLoop=1;jettySize=auto;html=1;entryX=0;entryY=0;entryDx=0;entryDy=0;" edge="1" parent="1" source="FBOypV3YJuFM0SSWteNj-3" target="FBOypV3YJuFM0SSWteNj-8">
          <mxGeometry relative="1" as="geometry" />
        </mxCell>
        <mxCell id="FBOypV3YJuFM0SSWteNj-3" value="B" style="ellipse;whiteSpace=wrap;html=1;aspect=fixed;" vertex="1" parent="1">
          <mxGeometry x="120" y="240" width="30" height="30" as="geometry" />
        </mxCell>
        <mxCell id="FBOypV3YJuFM0SSWteNj-20" style="edgeStyle=none;rounded=0;orthogonalLoop=1;jettySize=auto;html=1;entryX=0;entryY=0.5;entryDx=0;entryDy=0;" edge="1" parent="1" source="FBOypV3YJuFM0SSWteNj-5" target="FBOypV3YJuFM0SSWteNj-8">
          <mxGeometry relative="1" as="geometry" />
        </mxCell>
        <mxCell id="FBOypV3YJuFM0SSWteNj-21" style="edgeStyle=none;rounded=0;orthogonalLoop=1;jettySize=auto;html=1;entryX=0;entryY=1;entryDx=0;entryDy=0;" edge="1" parent="1" source="FBOypV3YJuFM0SSWteNj-5" target="FBOypV3YJuFM0SSWteNj-7">
          <mxGeometry relative="1" as="geometry" />
        </mxCell>
        <mxCell id="FBOypV3YJuFM0SSWteNj-22" style="edgeStyle=none;rounded=0;orthogonalLoop=1;jettySize=auto;html=1;entryX=0;entryY=1;entryDx=0;entryDy=0;" edge="1" parent="1" source="FBOypV3YJuFM0SSWteNj-5" target="FBOypV3YJuFM0SSWteNj-6">
          <mxGeometry relative="1" as="geometry" />
        </mxCell>
        <mxCell id="FBOypV3YJuFM0SSWteNj-5" value="C" style="ellipse;whiteSpace=wrap;html=1;aspect=fixed;" vertex="1" parent="1">
          <mxGeometry x="120" y="360" width="30" height="30" as="geometry" />
        </mxCell>
        <mxCell id="FBOypV3YJuFM0SSWteNj-24" style="edgeStyle=none;rounded=0;orthogonalLoop=1;jettySize=auto;html=1;entryX=0;entryY=0;entryDx=0;entryDy=0;" edge="1" parent="1" source="FBOypV3YJuFM0SSWteNj-6" target="FBOypV3YJuFM0SSWteNj-10">
          <mxGeometry relative="1" as="geometry" />
        </mxCell>
        <mxCell id="FBOypV3YJuFM0SSWteNj-6" value="D" style="ellipse;whiteSpace=wrap;html=1;aspect=fixed;" vertex="1" parent="1">
          <mxGeometry x="250" y="130" width="30" height="30" as="geometry" />
        </mxCell>
        <mxCell id="FBOypV3YJuFM0SSWteNj-25" style="edgeStyle=none;rounded=0;orthogonalLoop=1;jettySize=auto;html=1;" edge="1" parent="1" source="FBOypV3YJuFM0SSWteNj-7" target="FBOypV3YJuFM0SSWteNj-10">
          <mxGeometry relative="1" as="geometry" />
        </mxCell>
        <mxCell id="FBOypV3YJuFM0SSWteNj-7" value="E" style="ellipse;whiteSpace=wrap;html=1;aspect=fixed;" vertex="1" parent="1">
          <mxGeometry x="250" y="240" width="30" height="30" as="geometry" />
        </mxCell>
        <mxCell id="FBOypV3YJuFM0SSWteNj-27" style="edgeStyle=none;rounded=0;orthogonalLoop=1;jettySize=auto;html=1;entryX=0;entryY=0.5;entryDx=0;entryDy=0;" edge="1" parent="1" source="FBOypV3YJuFM0SSWteNj-8" target="FBOypV3YJuFM0SSWteNj-9">
          <mxGeometry relative="1" as="geometry" />
        </mxCell>
        <mxCell id="FBOypV3YJuFM0SSWteNj-30" style="edgeStyle=none;rounded=0;orthogonalLoop=1;jettySize=auto;html=1;entryX=0;entryY=1;entryDx=0;entryDy=0;" edge="1" parent="1" source="FBOypV3YJuFM0SSWteNj-8" target="FBOypV3YJuFM0SSWteNj-10">
          <mxGeometry relative="1" as="geometry" />
        </mxCell>
        <mxCell id="FBOypV3YJuFM0SSWteNj-8" value="F" style="ellipse;whiteSpace=wrap;html=1;aspect=fixed;" vertex="1" parent="1">
          <mxGeometry x="250" y="360" width="30" height="30" as="geometry" />
        </mxCell>
        <mxCell id="FBOypV3YJuFM0SSWteNj-28" style="edgeStyle=none;rounded=0;orthogonalLoop=1;jettySize=auto;html=1;entryX=0;entryY=1;entryDx=0;entryDy=0;" edge="1" parent="1" source="FBOypV3YJuFM0SSWteNj-9" target="FBOypV3YJuFM0SSWteNj-10">
          <mxGeometry relative="1" as="geometry" />
        </mxCell>
        <mxCell id="FBOypV3YJuFM0SSWteNj-9" value="G" style="ellipse;whiteSpace=wrap;html=1;aspect=fixed;" vertex="1" parent="1">
          <mxGeometry x="370" y="360" width="30" height="30" as="geometry" />
        </mxCell>
        <mxCell id="FBOypV3YJuFM0SSWteNj-10" value="S" style="ellipse;whiteSpace=wrap;html=1;aspect=fixed;" vertex="1" parent="1">
          <mxGeometry x="460" y="240" width="30" height="30" as="geometry" />
        </mxCell>
        <mxCell id="FBOypV3YJuFM0SSWteNj-31" value="Reseau initial avec f nul" style="text;html=1;strokeColor=none;fillColor=none;align=center;verticalAlign=middle;whiteSpace=wrap;rounded=0;fontSize=16;" vertex="1" parent="1">
          <mxGeometry x="70" y="410" width="230" height="30" as="geometry" />
        </mxCell>
        <mxCell id="FBOypV3YJuFM0SSWteNj-32" style="edgeStyle=none;rounded=0;orthogonalLoop=1;jettySize=auto;html=1;entryX=-0.1;entryY=0.908;entryDx=0;entryDy=0;entryPerimeter=0;" edge="1" parent="1" source="FBOypV3YJuFM0SSWteNj-36" target="FBOypV3YJuFM0SSWteNj-39">
          <mxGeometry relative="1" as="geometry" />
        </mxCell>
        <mxCell id="FBOypV3YJuFM0SSWteNj-33" style="edgeStyle=none;rounded=0;orthogonalLoop=1;jettySize=auto;html=1;entryX=0;entryY=0.5;entryDx=0;entryDy=0;" edge="1" parent="1" source="FBOypV3YJuFM0SSWteNj-36" target="FBOypV3YJuFM0SSWteNj-41">
          <mxGeometry relative="1" as="geometry" />
        </mxCell>
        <mxCell id="FBOypV3YJuFM0SSWteNj-34" style="edgeStyle=none;rounded=0;orthogonalLoop=1;jettySize=auto;html=1;entryX=0;entryY=0;entryDx=0;entryDy=0;" edge="1" parent="1" source="FBOypV3YJuFM0SSWteNj-36" target="FBOypV3YJuFM0SSWteNj-45">
          <mxGeometry relative="1" as="geometry" />
        </mxCell>
        <mxCell id="FBOypV3YJuFM0SSWteNj-35" style="edgeStyle=none;rounded=0;orthogonalLoop=1;jettySize=auto;html=1;entryX=0;entryY=0.5;entryDx=0;entryDy=0;strokeWidth=2;fillColor=#1ba1e2;strokeColor=#006EAF;" edge="1" parent="1" source="FBOypV3YJuFM0SSWteNj-36" target="FBOypV3YJuFM0SSWteNj-52">
          <mxGeometry relative="1" as="geometry" />
        </mxCell>
        <mxCell id="FBOypV3YJuFM0SSWteNj-36" value="E" style="ellipse;whiteSpace=wrap;html=1;aspect=fixed;" vertex="1" parent="1">
          <mxGeometry x="520" y="240" width="30" height="30" as="geometry" />
        </mxCell>
        <mxCell id="FBOypV3YJuFM0SSWteNj-37" style="edgeStyle=none;rounded=0;orthogonalLoop=1;jettySize=auto;html=1;entryX=0;entryY=0;entryDx=0;entryDy=0;" edge="1" parent="1" source="FBOypV3YJuFM0SSWteNj-39" target="FBOypV3YJuFM0SSWteNj-49">
          <mxGeometry relative="1" as="geometry" />
        </mxCell>
        <mxCell id="FBOypV3YJuFM0SSWteNj-38" style="edgeStyle=none;rounded=0;orthogonalLoop=1;jettySize=auto;html=1;entryX=0;entryY=0.5;entryDx=0;entryDy=0;" edge="1" parent="1" source="FBOypV3YJuFM0SSWteNj-39" target="FBOypV3YJuFM0SSWteNj-47">
          <mxGeometry relative="1" as="geometry" />
        </mxCell>
        <mxCell id="FBOypV3YJuFM0SSWteNj-39" value="A" style="ellipse;whiteSpace=wrap;html=1;aspect=fixed;" vertex="1" parent="1">
          <mxGeometry x="630" y="130" width="30" height="30" as="geometry" />
        </mxCell>
        <mxCell id="FBOypV3YJuFM0SSWteNj-40" style="edgeStyle=none;rounded=0;orthogonalLoop=1;jettySize=auto;html=1;entryX=0;entryY=0;entryDx=0;entryDy=0;" edge="1" parent="1" source="FBOypV3YJuFM0SSWteNj-41" target="FBOypV3YJuFM0SSWteNj-52">
          <mxGeometry relative="1" as="geometry" />
        </mxCell>
        <mxCell id="FBOypV3YJuFM0SSWteNj-41" value="B" style="ellipse;whiteSpace=wrap;html=1;aspect=fixed;" vertex="1" parent="1">
          <mxGeometry x="630" y="240" width="30" height="30" as="geometry" />
        </mxCell>
        <mxCell id="FBOypV3YJuFM0SSWteNj-42" style="edgeStyle=none;rounded=0;orthogonalLoop=1;jettySize=auto;html=1;entryX=0;entryY=0.5;entryDx=0;entryDy=0;" edge="1" parent="1" source="FBOypV3YJuFM0SSWteNj-45" target="FBOypV3YJuFM0SSWteNj-52">
          <mxGeometry relative="1" as="geometry" />
        </mxCell>
        <mxCell id="FBOypV3YJuFM0SSWteNj-43" style="edgeStyle=none;rounded=0;orthogonalLoop=1;jettySize=auto;html=1;entryX=0;entryY=1;entryDx=0;entryDy=0;" edge="1" parent="1" source="FBOypV3YJuFM0SSWteNj-45" target="FBOypV3YJuFM0SSWteNj-49">
          <mxGeometry relative="1" as="geometry" />
        </mxCell>
        <mxCell id="FBOypV3YJuFM0SSWteNj-44" style="edgeStyle=none;rounded=0;orthogonalLoop=1;jettySize=auto;html=1;entryX=0;entryY=1;entryDx=0;entryDy=0;" edge="1" parent="1" source="FBOypV3YJuFM0SSWteNj-45" target="FBOypV3YJuFM0SSWteNj-47">
          <mxGeometry relative="1" as="geometry" />
        </mxCell>
        <mxCell id="FBOypV3YJuFM0SSWteNj-45" value="C" style="ellipse;whiteSpace=wrap;html=1;aspect=fixed;" vertex="1" parent="1">
          <mxGeometry x="630" y="360" width="30" height="30" as="geometry" />
        </mxCell>
        <mxCell id="FBOypV3YJuFM0SSWteNj-46" style="edgeStyle=none;rounded=0;orthogonalLoop=1;jettySize=auto;html=1;entryX=0;entryY=0;entryDx=0;entryDy=0;" edge="1" parent="1" source="FBOypV3YJuFM0SSWteNj-47" target="FBOypV3YJuFM0SSWteNj-55">
          <mxGeometry relative="1" as="geometry" />
        </mxCell>
        <mxCell id="FBOypV3YJuFM0SSWteNj-47" value="D" style="ellipse;whiteSpace=wrap;html=1;aspect=fixed;" vertex="1" parent="1">
          <mxGeometry x="760" y="130" width="30" height="30" as="geometry" />
        </mxCell>
        <mxCell id="FBOypV3YJuFM0SSWteNj-48" style="edgeStyle=none;rounded=0;orthogonalLoop=1;jettySize=auto;html=1;" edge="1" parent="1" source="FBOypV3YJuFM0SSWteNj-49" target="FBOypV3YJuFM0SSWteNj-55">
          <mxGeometry relative="1" as="geometry" />
        </mxCell>
        <mxCell id="FBOypV3YJuFM0SSWteNj-49" value="E" style="ellipse;whiteSpace=wrap;html=1;aspect=fixed;" vertex="1" parent="1">
          <mxGeometry x="760" y="240" width="30" height="30" as="geometry" />
        </mxCell>
        <mxCell id="FBOypV3YJuFM0SSWteNj-50" style="edgeStyle=none;rounded=0;orthogonalLoop=1;jettySize=auto;html=1;entryX=0;entryY=0.5;entryDx=0;entryDy=0;" edge="1" parent="1" source="FBOypV3YJuFM0SSWteNj-52" target="FBOypV3YJuFM0SSWteNj-54">
          <mxGeometry relative="1" as="geometry" />
        </mxCell>
        <mxCell id="FBOypV3YJuFM0SSWteNj-51" style="edgeStyle=none;rounded=0;orthogonalLoop=1;jettySize=auto;html=1;entryX=0;entryY=1;entryDx=0;entryDy=0;strokeWidth=2;fillColor=#1ba1e2;strokeColor=#006EAF;" edge="1" parent="1" source="FBOypV3YJuFM0SSWteNj-52" target="FBOypV3YJuFM0SSWteNj-55">
          <mxGeometry relative="1" as="geometry" />
        </mxCell>
        <mxCell id="FBOypV3YJuFM0SSWteNj-52" value="F" style="ellipse;whiteSpace=wrap;html=1;aspect=fixed;" vertex="1" parent="1">
          <mxGeometry x="760" y="360" width="30" height="30" as="geometry" />
        </mxCell>
        <mxCell id="FBOypV3YJuFM0SSWteNj-53" style="edgeStyle=none;rounded=0;orthogonalLoop=1;jettySize=auto;html=1;entryX=0;entryY=1;entryDx=0;entryDy=0;" edge="1" parent="1" source="FBOypV3YJuFM0SSWteNj-54" target="FBOypV3YJuFM0SSWteNj-55">
          <mxGeometry relative="1" as="geometry" />
        </mxCell>
        <mxCell id="FBOypV3YJuFM0SSWteNj-54" value="G" style="ellipse;whiteSpace=wrap;html=1;aspect=fixed;" vertex="1" parent="1">
          <mxGeometry x="880" y="360" width="30" height="30" as="geometry" />
        </mxCell>
        <mxCell id="FBOypV3YJuFM0SSWteNj-55" value="E" style="ellipse;whiteSpace=wrap;html=1;aspect=fixed;" vertex="1" parent="1">
          <mxGeometry x="970" y="240" width="30" height="30" as="geometry" />
        </mxCell>
        <mxCell id="FBOypV3YJuFM0SSWteNj-56" value="Reseau R*(f) avec chemin&lt;br style=&quot;font-size: 16px;&quot;&gt;de E vers S" style="text;html=1;strokeColor=none;fillColor=none;align=center;verticalAlign=middle;whiteSpace=wrap;rounded=0;fontSize=16;" vertex="1" parent="1">
          <mxGeometry x="580" y="410" width="230" height="30" as="geometry" />
        </mxCell>
        <mxCell id="FBOypV3YJuFM0SSWteNj-57" style="edgeStyle=none;rounded=0;orthogonalLoop=1;jettySize=auto;html=1;entryX=-0.1;entryY=0.908;entryDx=0;entryDy=0;entryPerimeter=0;strokeWidth=2;fillColor=#1ba1e2;strokeColor=#006EAF;" edge="1" parent="1" source="FBOypV3YJuFM0SSWteNj-61" target="FBOypV3YJuFM0SSWteNj-64">
          <mxGeometry relative="1" as="geometry" />
        </mxCell>
        <mxCell id="FBOypV3YJuFM0SSWteNj-58" style="edgeStyle=none;rounded=0;orthogonalLoop=1;jettySize=auto;html=1;entryX=0;entryY=0.5;entryDx=0;entryDy=0;" edge="1" parent="1" source="FBOypV3YJuFM0SSWteNj-61" target="FBOypV3YJuFM0SSWteNj-66">
          <mxGeometry relative="1" as="geometry" />
        </mxCell>
        <mxCell id="FBOypV3YJuFM0SSWteNj-59" style="edgeStyle=none;rounded=0;orthogonalLoop=1;jettySize=auto;html=1;entryX=0;entryY=0;entryDx=0;entryDy=0;" edge="1" parent="1" source="FBOypV3YJuFM0SSWteNj-61" target="FBOypV3YJuFM0SSWteNj-70">
          <mxGeometry relative="1" as="geometry" />
        </mxCell>
        <mxCell id="FBOypV3YJuFM0SSWteNj-61" value="E" style="ellipse;whiteSpace=wrap;html=1;aspect=fixed;" vertex="1" parent="1">
          <mxGeometry x="1519.5" y="240" width="30" height="30" as="geometry" />
        </mxCell>
        <mxCell id="FBOypV3YJuFM0SSWteNj-62" style="edgeStyle=none;rounded=0;orthogonalLoop=1;jettySize=auto;html=1;entryX=0;entryY=0;entryDx=0;entryDy=0;" edge="1" parent="1" source="FBOypV3YJuFM0SSWteNj-64" target="FBOypV3YJuFM0SSWteNj-74">
          <mxGeometry relative="1" as="geometry" />
        </mxCell>
        <mxCell id="FBOypV3YJuFM0SSWteNj-63" style="edgeStyle=none;rounded=0;orthogonalLoop=1;jettySize=auto;html=1;entryX=0;entryY=0.5;entryDx=0;entryDy=0;strokeWidth=2;fillColor=#1ba1e2;strokeColor=#006EAF;" edge="1" parent="1" source="FBOypV3YJuFM0SSWteNj-64" target="FBOypV3YJuFM0SSWteNj-72">
          <mxGeometry relative="1" as="geometry" />
        </mxCell>
        <mxCell id="FBOypV3YJuFM0SSWteNj-64" value="A" style="ellipse;whiteSpace=wrap;html=1;aspect=fixed;" vertex="1" parent="1">
          <mxGeometry x="1629.5" y="130" width="30" height="30" as="geometry" />
        </mxCell>
        <mxCell id="FBOypV3YJuFM0SSWteNj-65" style="edgeStyle=none;rounded=0;orthogonalLoop=1;jettySize=auto;html=1;entryX=0;entryY=0;entryDx=0;entryDy=0;" edge="1" parent="1" source="FBOypV3YJuFM0SSWteNj-66" target="FBOypV3YJuFM0SSWteNj-77">
          <mxGeometry relative="1" as="geometry" />
        </mxCell>
        <mxCell id="FBOypV3YJuFM0SSWteNj-66" value="B" style="ellipse;whiteSpace=wrap;html=1;aspect=fixed;" vertex="1" parent="1">
          <mxGeometry x="1629.5" y="240" width="30" height="30" as="geometry" />
        </mxCell>
        <mxCell id="FBOypV3YJuFM0SSWteNj-67" style="edgeStyle=none;rounded=0;orthogonalLoop=1;jettySize=auto;html=1;entryX=0;entryY=0.5;entryDx=0;entryDy=0;" edge="1" parent="1" source="FBOypV3YJuFM0SSWteNj-70" target="FBOypV3YJuFM0SSWteNj-77">
          <mxGeometry relative="1" as="geometry" />
        </mxCell>
        <mxCell id="FBOypV3YJuFM0SSWteNj-68" style="edgeStyle=none;rounded=0;orthogonalLoop=1;jettySize=auto;html=1;entryX=0;entryY=1;entryDx=0;entryDy=0;" edge="1" parent="1" source="FBOypV3YJuFM0SSWteNj-70" target="FBOypV3YJuFM0SSWteNj-74">
          <mxGeometry relative="1" as="geometry" />
        </mxCell>
        <mxCell id="FBOypV3YJuFM0SSWteNj-69" style="edgeStyle=none;rounded=0;orthogonalLoop=1;jettySize=auto;html=1;entryX=0;entryY=1;entryDx=0;entryDy=0;" edge="1" parent="1" source="FBOypV3YJuFM0SSWteNj-70" target="FBOypV3YJuFM0SSWteNj-72">
          <mxGeometry relative="1" as="geometry" />
        </mxCell>
        <mxCell id="FBOypV3YJuFM0SSWteNj-70" value="C" style="ellipse;whiteSpace=wrap;html=1;aspect=fixed;" vertex="1" parent="1">
          <mxGeometry x="1629.5" y="360" width="30" height="30" as="geometry" />
        </mxCell>
        <mxCell id="FBOypV3YJuFM0SSWteNj-71" style="edgeStyle=none;rounded=0;orthogonalLoop=1;jettySize=auto;html=1;entryX=0;entryY=0;entryDx=0;entryDy=0;strokeWidth=2;fillColor=#1ba1e2;strokeColor=#006EAF;" edge="1" parent="1" source="FBOypV3YJuFM0SSWteNj-72" target="FBOypV3YJuFM0SSWteNj-80">
          <mxGeometry relative="1" as="geometry" />
        </mxCell>
        <mxCell id="FBOypV3YJuFM0SSWteNj-72" value="D" style="ellipse;whiteSpace=wrap;html=1;aspect=fixed;" vertex="1" parent="1">
          <mxGeometry x="1759.5" y="130" width="30" height="30" as="geometry" />
        </mxCell>
        <mxCell id="FBOypV3YJuFM0SSWteNj-73" style="edgeStyle=none;rounded=0;orthogonalLoop=1;jettySize=auto;html=1;" edge="1" parent="1" source="FBOypV3YJuFM0SSWteNj-74" target="FBOypV3YJuFM0SSWteNj-80">
          <mxGeometry relative="1" as="geometry" />
        </mxCell>
        <mxCell id="FBOypV3YJuFM0SSWteNj-74" value="E" style="ellipse;whiteSpace=wrap;html=1;aspect=fixed;" vertex="1" parent="1">
          <mxGeometry x="1759.5" y="240" width="30" height="30" as="geometry" />
        </mxCell>
        <mxCell id="FBOypV3YJuFM0SSWteNj-75" style="edgeStyle=none;rounded=0;orthogonalLoop=1;jettySize=auto;html=1;entryX=0;entryY=0.5;entryDx=0;entryDy=0;" edge="1" parent="1" source="FBOypV3YJuFM0SSWteNj-77" target="FBOypV3YJuFM0SSWteNj-79">
          <mxGeometry relative="1" as="geometry" />
        </mxCell>
        <mxCell id="FBOypV3YJuFM0SSWteNj-83" style="edgeStyle=none;rounded=0;orthogonalLoop=1;jettySize=auto;html=1;entryX=1;entryY=1;entryDx=0;entryDy=0;fontSize=15;strokeWidth=1;" edge="1" parent="1" source="FBOypV3YJuFM0SSWteNj-77" target="FBOypV3YJuFM0SSWteNj-61">
          <mxGeometry relative="1" as="geometry" />
        </mxCell>
        <mxCell id="FBOypV3YJuFM0SSWteNj-77" value="F" style="ellipse;whiteSpace=wrap;html=1;aspect=fixed;" vertex="1" parent="1">
          <mxGeometry x="1759.5" y="360" width="30" height="30" as="geometry" />
        </mxCell>
        <mxCell id="FBOypV3YJuFM0SSWteNj-78" style="edgeStyle=none;rounded=0;orthogonalLoop=1;jettySize=auto;html=1;entryX=0;entryY=1;entryDx=0;entryDy=0;" edge="1" parent="1" source="FBOypV3YJuFM0SSWteNj-79" target="FBOypV3YJuFM0SSWteNj-80">
          <mxGeometry relative="1" as="geometry" />
        </mxCell>
        <mxCell id="FBOypV3YJuFM0SSWteNj-79" value="G" style="ellipse;whiteSpace=wrap;html=1;aspect=fixed;" vertex="1" parent="1">
          <mxGeometry x="1879.5" y="360" width="30" height="30" as="geometry" />
        </mxCell>
        <mxCell id="FBOypV3YJuFM0SSWteNj-82" style="edgeStyle=none;rounded=0;orthogonalLoop=1;jettySize=auto;html=1;entryX=1;entryY=0.5;entryDx=0;entryDy=0;fontSize=15;strokeWidth=1;" edge="1" parent="1" source="FBOypV3YJuFM0SSWteNj-80" target="FBOypV3YJuFM0SSWteNj-77">
          <mxGeometry relative="1" as="geometry" />
        </mxCell>
        <mxCell id="FBOypV3YJuFM0SSWteNj-80" value="E" style="ellipse;whiteSpace=wrap;html=1;aspect=fixed;" vertex="1" parent="1">
          <mxGeometry x="1969.5" y="240" width="30" height="30" as="geometry" />
        </mxCell>
        <mxCell id="FBOypV3YJuFM0SSWteNj-81" value="Reseau R*(f) avec chemin&lt;br style=&quot;font-size: 17px;&quot;&gt;de E vers S" style="text;html=1;strokeColor=none;fillColor=none;align=center;verticalAlign=middle;whiteSpace=wrap;rounded=0;fontSize=17;strokeWidth=2;" vertex="1" parent="1">
          <mxGeometry x="1579.5" y="410" width="230" height="30" as="geometry" />
        </mxCell>
        <mxCell id="FBOypV3YJuFM0SSWteNj-84" style="edgeStyle=none;rounded=0;orthogonalLoop=1;jettySize=auto;html=1;entryX=-0.1;entryY=0.908;entryDx=0;entryDy=0;entryPerimeter=0;" edge="1" parent="1" source="FBOypV3YJuFM0SSWteNj-88" target="FBOypV3YJuFM0SSWteNj-91">
          <mxGeometry relative="1" as="geometry" />
        </mxCell>
        <mxCell id="FBOypV3YJuFM0SSWteNj-85" style="edgeStyle=none;rounded=0;orthogonalLoop=1;jettySize=auto;html=1;entryX=0;entryY=0.5;entryDx=0;entryDy=0;" edge="1" parent="1" source="FBOypV3YJuFM0SSWteNj-88" target="FBOypV3YJuFM0SSWteNj-93">
          <mxGeometry relative="1" as="geometry" />
        </mxCell>
        <mxCell id="FBOypV3YJuFM0SSWteNj-86" style="edgeStyle=none;rounded=0;orthogonalLoop=1;jettySize=auto;html=1;entryX=0;entryY=0;entryDx=0;entryDy=0;" edge="1" parent="1" source="FBOypV3YJuFM0SSWteNj-88" target="FBOypV3YJuFM0SSWteNj-97">
          <mxGeometry relative="1" as="geometry" />
        </mxCell>
        <mxCell id="FBOypV3YJuFM0SSWteNj-87" style="edgeStyle=none;rounded=0;orthogonalLoop=1;jettySize=auto;html=1;entryX=0;entryY=0.5;entryDx=0;entryDy=0;strokeWidth=3;" edge="1" parent="1" source="FBOypV3YJuFM0SSWteNj-88" target="FBOypV3YJuFM0SSWteNj-104">
          <mxGeometry relative="1" as="geometry" />
        </mxCell>
        <mxCell id="FBOypV3YJuFM0SSWteNj-88" value="E" style="ellipse;whiteSpace=wrap;html=1;aspect=fixed;" vertex="1" parent="1">
          <mxGeometry x="1030" y="240" width="30" height="30" as="geometry" />
        </mxCell>
        <mxCell id="FBOypV3YJuFM0SSWteNj-89" style="edgeStyle=none;rounded=0;orthogonalLoop=1;jettySize=auto;html=1;entryX=0;entryY=0;entryDx=0;entryDy=0;" edge="1" parent="1" source="FBOypV3YJuFM0SSWteNj-91" target="FBOypV3YJuFM0SSWteNj-101">
          <mxGeometry relative="1" as="geometry" />
        </mxCell>
        <mxCell id="FBOypV3YJuFM0SSWteNj-90" style="edgeStyle=none;rounded=0;orthogonalLoop=1;jettySize=auto;html=1;entryX=0;entryY=0.5;entryDx=0;entryDy=0;" edge="1" parent="1" source="FBOypV3YJuFM0SSWteNj-91" target="FBOypV3YJuFM0SSWteNj-99">
          <mxGeometry relative="1" as="geometry" />
        </mxCell>
        <mxCell id="FBOypV3YJuFM0SSWteNj-91" value="A" style="ellipse;whiteSpace=wrap;html=1;aspect=fixed;" vertex="1" parent="1">
          <mxGeometry x="1140" y="130" width="30" height="30" as="geometry" />
        </mxCell>
        <mxCell id="FBOypV3YJuFM0SSWteNj-92" style="edgeStyle=none;rounded=0;orthogonalLoop=1;jettySize=auto;html=1;entryX=0;entryY=0;entryDx=0;entryDy=0;" edge="1" parent="1" source="FBOypV3YJuFM0SSWteNj-93" target="FBOypV3YJuFM0SSWteNj-104">
          <mxGeometry relative="1" as="geometry" />
        </mxCell>
        <mxCell id="FBOypV3YJuFM0SSWteNj-93" value="B" style="ellipse;whiteSpace=wrap;html=1;aspect=fixed;" vertex="1" parent="1">
          <mxGeometry x="1140" y="240" width="30" height="30" as="geometry" />
        </mxCell>
        <mxCell id="FBOypV3YJuFM0SSWteNj-94" style="edgeStyle=none;rounded=0;orthogonalLoop=1;jettySize=auto;html=1;entryX=0;entryY=0.5;entryDx=0;entryDy=0;" edge="1" parent="1" source="FBOypV3YJuFM0SSWteNj-97" target="FBOypV3YJuFM0SSWteNj-104">
          <mxGeometry relative="1" as="geometry" />
        </mxCell>
        <mxCell id="FBOypV3YJuFM0SSWteNj-95" style="edgeStyle=none;rounded=0;orthogonalLoop=1;jettySize=auto;html=1;entryX=0;entryY=1;entryDx=0;entryDy=0;" edge="1" parent="1" source="FBOypV3YJuFM0SSWteNj-97" target="FBOypV3YJuFM0SSWteNj-101">
          <mxGeometry relative="1" as="geometry" />
        </mxCell>
        <mxCell id="FBOypV3YJuFM0SSWteNj-96" style="edgeStyle=none;rounded=0;orthogonalLoop=1;jettySize=auto;html=1;entryX=0;entryY=1;entryDx=0;entryDy=0;" edge="1" parent="1" source="FBOypV3YJuFM0SSWteNj-97" target="FBOypV3YJuFM0SSWteNj-99">
          <mxGeometry relative="1" as="geometry" />
        </mxCell>
        <mxCell id="FBOypV3YJuFM0SSWteNj-97" value="C" style="ellipse;whiteSpace=wrap;html=1;aspect=fixed;" vertex="1" parent="1">
          <mxGeometry x="1140" y="360" width="30" height="30" as="geometry" />
        </mxCell>
        <mxCell id="FBOypV3YJuFM0SSWteNj-98" style="edgeStyle=none;rounded=0;orthogonalLoop=1;jettySize=auto;html=1;entryX=0;entryY=0;entryDx=0;entryDy=0;" edge="1" parent="1" source="FBOypV3YJuFM0SSWteNj-99" target="FBOypV3YJuFM0SSWteNj-107">
          <mxGeometry relative="1" as="geometry" />
        </mxCell>
        <mxCell id="FBOypV3YJuFM0SSWteNj-99" value="D" style="ellipse;whiteSpace=wrap;html=1;aspect=fixed;" vertex="1" parent="1">
          <mxGeometry x="1270" y="130" width="30" height="30" as="geometry" />
        </mxCell>
        <mxCell id="FBOypV3YJuFM0SSWteNj-100" style="edgeStyle=none;rounded=0;orthogonalLoop=1;jettySize=auto;html=1;" edge="1" parent="1" source="FBOypV3YJuFM0SSWteNj-101" target="FBOypV3YJuFM0SSWteNj-107">
          <mxGeometry relative="1" as="geometry" />
        </mxCell>
        <mxCell id="FBOypV3YJuFM0SSWteNj-101" value="E" style="ellipse;whiteSpace=wrap;html=1;aspect=fixed;" vertex="1" parent="1">
          <mxGeometry x="1270" y="240" width="30" height="30" as="geometry" />
        </mxCell>
        <mxCell id="FBOypV3YJuFM0SSWteNj-102" style="edgeStyle=none;rounded=0;orthogonalLoop=1;jettySize=auto;html=1;entryX=0;entryY=0.5;entryDx=0;entryDy=0;" edge="1" parent="1" source="FBOypV3YJuFM0SSWteNj-104" target="FBOypV3YJuFM0SSWteNj-106">
          <mxGeometry relative="1" as="geometry" />
        </mxCell>
        <mxCell id="FBOypV3YJuFM0SSWteNj-103" style="edgeStyle=none;rounded=0;orthogonalLoop=1;jettySize=auto;html=1;entryX=0;entryY=1;entryDx=0;entryDy=0;strokeWidth=3;" edge="1" parent="1" source="FBOypV3YJuFM0SSWteNj-104" target="FBOypV3YJuFM0SSWteNj-107">
          <mxGeometry relative="1" as="geometry" />
        </mxCell>
        <mxCell id="FBOypV3YJuFM0SSWteNj-104" value="F" style="ellipse;whiteSpace=wrap;html=1;aspect=fixed;strokeWidth=3;" vertex="1" parent="1">
          <mxGeometry x="1270" y="360" width="30" height="30" as="geometry" />
        </mxCell>
        <mxCell id="FBOypV3YJuFM0SSWteNj-105" style="edgeStyle=none;rounded=0;orthogonalLoop=1;jettySize=auto;html=1;entryX=0;entryY=1;entryDx=0;entryDy=0;" edge="1" parent="1" source="FBOypV3YJuFM0SSWteNj-106" target="FBOypV3YJuFM0SSWteNj-107">
          <mxGeometry relative="1" as="geometry" />
        </mxCell>
        <mxCell id="FBOypV3YJuFM0SSWteNj-106" value="G" style="ellipse;whiteSpace=wrap;html=1;aspect=fixed;" vertex="1" parent="1">
          <mxGeometry x="1390" y="360" width="30" height="30" as="geometry" />
        </mxCell>
        <mxCell id="FBOypV3YJuFM0SSWteNj-107" value="E" style="ellipse;whiteSpace=wrap;html=1;aspect=fixed;strokeWidth=1;" vertex="1" parent="1">
          <mxGeometry x="1480" y="240" width="30" height="30" as="geometry" />
        </mxCell>
        <mxCell id="FBOypV3YJuFM0SSWteNj-108" value="Nouveau flot f" style="text;html=1;strokeColor=none;fillColor=none;align=center;verticalAlign=middle;whiteSpace=wrap;rounded=0;fontSize=16;" vertex="1" parent="1">
          <mxGeometry x="1090" y="410" width="230" height="30" as="geometry" />
        </mxCell>
        <mxCell id="FBOypV3YJuFM0SSWteNj-112" style="edgeStyle=none;rounded=0;orthogonalLoop=1;jettySize=auto;html=1;entryX=-0.1;entryY=0.908;entryDx=0;entryDy=0;entryPerimeter=0;strokeWidth=3;" edge="1" parent="1" source="FBOypV3YJuFM0SSWteNj-116" target="FBOypV3YJuFM0SSWteNj-119">
          <mxGeometry relative="1" as="geometry" />
        </mxCell>
        <mxCell id="FBOypV3YJuFM0SSWteNj-113" style="edgeStyle=none;rounded=0;orthogonalLoop=1;jettySize=auto;html=1;entryX=0;entryY=0.5;entryDx=0;entryDy=0;" edge="1" parent="1" source="FBOypV3YJuFM0SSWteNj-116" target="FBOypV3YJuFM0SSWteNj-121">
          <mxGeometry relative="1" as="geometry" />
        </mxCell>
        <mxCell id="FBOypV3YJuFM0SSWteNj-114" style="edgeStyle=none;rounded=0;orthogonalLoop=1;jettySize=auto;html=1;entryX=0;entryY=0;entryDx=0;entryDy=0;" edge="1" parent="1" source="FBOypV3YJuFM0SSWteNj-116" target="FBOypV3YJuFM0SSWteNj-125">
          <mxGeometry relative="1" as="geometry" />
        </mxCell>
        <mxCell id="FBOypV3YJuFM0SSWteNj-115" style="edgeStyle=none;rounded=0;orthogonalLoop=1;jettySize=auto;html=1;entryX=0;entryY=0.5;entryDx=0;entryDy=0;strokeWidth=3;" edge="1" parent="1" source="FBOypV3YJuFM0SSWteNj-116" target="FBOypV3YJuFM0SSWteNj-132">
          <mxGeometry relative="1" as="geometry" />
        </mxCell>
        <mxCell id="FBOypV3YJuFM0SSWteNj-116" value="E" style="ellipse;whiteSpace=wrap;html=1;aspect=fixed;" vertex="1" parent="1">
          <mxGeometry x="1519.5" y="650" width="30" height="30" as="geometry" />
        </mxCell>
        <mxCell id="FBOypV3YJuFM0SSWteNj-117" style="edgeStyle=none;rounded=0;orthogonalLoop=1;jettySize=auto;html=1;entryX=0;entryY=0;entryDx=0;entryDy=0;" edge="1" parent="1" source="FBOypV3YJuFM0SSWteNj-119" target="FBOypV3YJuFM0SSWteNj-129">
          <mxGeometry relative="1" as="geometry" />
        </mxCell>
        <mxCell id="FBOypV3YJuFM0SSWteNj-118" style="edgeStyle=none;rounded=0;orthogonalLoop=1;jettySize=auto;html=1;entryX=0;entryY=0.5;entryDx=0;entryDy=0;strokeWidth=3;" edge="1" parent="1" source="FBOypV3YJuFM0SSWteNj-119" target="FBOypV3YJuFM0SSWteNj-127">
          <mxGeometry relative="1" as="geometry" />
        </mxCell>
        <mxCell id="FBOypV3YJuFM0SSWteNj-119" value="A" style="ellipse;whiteSpace=wrap;html=1;aspect=fixed;strokeWidth=3;" vertex="1" parent="1">
          <mxGeometry x="1629.5" y="540" width="30" height="30" as="geometry" />
        </mxCell>
        <mxCell id="FBOypV3YJuFM0SSWteNj-120" style="edgeStyle=none;rounded=0;orthogonalLoop=1;jettySize=auto;html=1;entryX=0;entryY=0;entryDx=0;entryDy=0;" edge="1" parent="1" source="FBOypV3YJuFM0SSWteNj-121" target="FBOypV3YJuFM0SSWteNj-132">
          <mxGeometry relative="1" as="geometry" />
        </mxCell>
        <mxCell id="FBOypV3YJuFM0SSWteNj-121" value="B" style="ellipse;whiteSpace=wrap;html=1;aspect=fixed;" vertex="1" parent="1">
          <mxGeometry x="1629.5" y="650" width="30" height="30" as="geometry" />
        </mxCell>
        <mxCell id="FBOypV3YJuFM0SSWteNj-122" style="edgeStyle=none;rounded=0;orthogonalLoop=1;jettySize=auto;html=1;entryX=0;entryY=0.5;entryDx=0;entryDy=0;" edge="1" parent="1" source="FBOypV3YJuFM0SSWteNj-125" target="FBOypV3YJuFM0SSWteNj-132">
          <mxGeometry relative="1" as="geometry" />
        </mxCell>
        <mxCell id="FBOypV3YJuFM0SSWteNj-123" style="edgeStyle=none;rounded=0;orthogonalLoop=1;jettySize=auto;html=1;entryX=0;entryY=1;entryDx=0;entryDy=0;" edge="1" parent="1" source="FBOypV3YJuFM0SSWteNj-125" target="FBOypV3YJuFM0SSWteNj-129">
          <mxGeometry relative="1" as="geometry" />
        </mxCell>
        <mxCell id="FBOypV3YJuFM0SSWteNj-124" style="edgeStyle=none;rounded=0;orthogonalLoop=1;jettySize=auto;html=1;entryX=0;entryY=1;entryDx=0;entryDy=0;" edge="1" parent="1" source="FBOypV3YJuFM0SSWteNj-125" target="FBOypV3YJuFM0SSWteNj-127">
          <mxGeometry relative="1" as="geometry" />
        </mxCell>
        <mxCell id="FBOypV3YJuFM0SSWteNj-125" value="C" style="ellipse;whiteSpace=wrap;html=1;aspect=fixed;" vertex="1" parent="1">
          <mxGeometry x="1629.5" y="770" width="30" height="30" as="geometry" />
        </mxCell>
        <mxCell id="FBOypV3YJuFM0SSWteNj-126" style="edgeStyle=none;rounded=0;orthogonalLoop=1;jettySize=auto;html=1;entryX=0;entryY=0;entryDx=0;entryDy=0;strokeWidth=3;" edge="1" parent="1" source="FBOypV3YJuFM0SSWteNj-127" target="FBOypV3YJuFM0SSWteNj-135">
          <mxGeometry relative="1" as="geometry" />
        </mxCell>
        <mxCell id="FBOypV3YJuFM0SSWteNj-127" value="D" style="ellipse;whiteSpace=wrap;html=1;aspect=fixed;strokeWidth=3;" vertex="1" parent="1">
          <mxGeometry x="1759.5" y="540" width="30" height="30" as="geometry" />
        </mxCell>
        <mxCell id="FBOypV3YJuFM0SSWteNj-128" style="edgeStyle=none;rounded=0;orthogonalLoop=1;jettySize=auto;html=1;" edge="1" parent="1" source="FBOypV3YJuFM0SSWteNj-129" target="FBOypV3YJuFM0SSWteNj-135">
          <mxGeometry relative="1" as="geometry" />
        </mxCell>
        <mxCell id="FBOypV3YJuFM0SSWteNj-129" value="E" style="ellipse;whiteSpace=wrap;html=1;aspect=fixed;" vertex="1" parent="1">
          <mxGeometry x="1759.5" y="650" width="30" height="30" as="geometry" />
        </mxCell>
        <mxCell id="FBOypV3YJuFM0SSWteNj-130" style="edgeStyle=none;rounded=0;orthogonalLoop=1;jettySize=auto;html=1;entryX=0;entryY=0.5;entryDx=0;entryDy=0;" edge="1" parent="1" source="FBOypV3YJuFM0SSWteNj-132" target="FBOypV3YJuFM0SSWteNj-134">
          <mxGeometry relative="1" as="geometry" />
        </mxCell>
        <mxCell id="FBOypV3YJuFM0SSWteNj-131" style="edgeStyle=none;rounded=0;orthogonalLoop=1;jettySize=auto;html=1;entryX=0;entryY=1;entryDx=0;entryDy=0;strokeWidth=3;" edge="1" parent="1" source="FBOypV3YJuFM0SSWteNj-132" target="FBOypV3YJuFM0SSWteNj-135">
          <mxGeometry relative="1" as="geometry" />
        </mxCell>
        <mxCell id="FBOypV3YJuFM0SSWteNj-132" value="F" style="ellipse;whiteSpace=wrap;html=1;aspect=fixed;strokeWidth=3;" vertex="1" parent="1">
          <mxGeometry x="1759.5" y="770" width="30" height="30" as="geometry" />
        </mxCell>
        <mxCell id="FBOypV3YJuFM0SSWteNj-133" style="edgeStyle=none;rounded=0;orthogonalLoop=1;jettySize=auto;html=1;entryX=0;entryY=1;entryDx=0;entryDy=0;" edge="1" parent="1" source="FBOypV3YJuFM0SSWteNj-134" target="FBOypV3YJuFM0SSWteNj-135">
          <mxGeometry relative="1" as="geometry" />
        </mxCell>
        <mxCell id="FBOypV3YJuFM0SSWteNj-134" value="G" style="ellipse;whiteSpace=wrap;html=1;aspect=fixed;" vertex="1" parent="1">
          <mxGeometry x="1879.5" y="770" width="30" height="30" as="geometry" />
        </mxCell>
        <mxCell id="FBOypV3YJuFM0SSWteNj-135" value="S" style="ellipse;whiteSpace=wrap;html=1;aspect=fixed;" vertex="1" parent="1">
          <mxGeometry x="1969.5" y="650" width="30" height="30" as="geometry" />
        </mxCell>
        <mxCell id="FBOypV3YJuFM0SSWteNj-136" value="Nouveau flot f" style="text;html=1;strokeColor=none;fillColor=none;align=center;verticalAlign=middle;whiteSpace=wrap;rounded=0;fontSize=16;" vertex="1" parent="1">
          <mxGeometry x="1579.5" y="820" width="230" height="30" as="geometry" />
        </mxCell>
        <mxCell id="FBOypV3YJuFM0SSWteNj-138" style="edgeStyle=none;rounded=0;orthogonalLoop=1;jettySize=auto;html=1;entryX=0;entryY=0.5;entryDx=0;entryDy=0;strokeWidth=1;" edge="1" parent="1" source="FBOypV3YJuFM0SSWteNj-140" target="FBOypV3YJuFM0SSWteNj-145">
          <mxGeometry relative="1" as="geometry" />
        </mxCell>
        <mxCell id="FBOypV3YJuFM0SSWteNj-139" style="edgeStyle=none;rounded=0;orthogonalLoop=1;jettySize=auto;html=1;entryX=0;entryY=0;entryDx=0;entryDy=0;fillColor=#0050ef;strokeColor=#001DBC;" edge="1" parent="1" source="FBOypV3YJuFM0SSWteNj-140" target="FBOypV3YJuFM0SSWteNj-149">
          <mxGeometry relative="1" as="geometry" />
        </mxCell>
        <mxCell id="FBOypV3YJuFM0SSWteNj-140" value="E" style="ellipse;whiteSpace=wrap;html=1;aspect=fixed;" vertex="1" parent="1">
          <mxGeometry x="1020" y="660" width="30" height="30" as="geometry" />
        </mxCell>
        <mxCell id="FBOypV3YJuFM0SSWteNj-141" style="edgeStyle=none;rounded=0;orthogonalLoop=1;jettySize=auto;html=1;entryX=0;entryY=0;entryDx=0;entryDy=0;" edge="1" parent="1" source="FBOypV3YJuFM0SSWteNj-143" target="FBOypV3YJuFM0SSWteNj-153">
          <mxGeometry relative="1" as="geometry" />
        </mxCell>
        <mxCell id="FBOypV3YJuFM0SSWteNj-165" style="edgeStyle=none;rounded=0;orthogonalLoop=1;jettySize=auto;html=1;entryX=1;entryY=0;entryDx=0;entryDy=0;fontSize=16;strokeWidth=1;" edge="1" parent="1" source="FBOypV3YJuFM0SSWteNj-143" target="FBOypV3YJuFM0SSWteNj-140">
          <mxGeometry relative="1" as="geometry" />
        </mxCell>
        <mxCell id="FBOypV3YJuFM0SSWteNj-143" value="A" style="ellipse;whiteSpace=wrap;html=1;aspect=fixed;" vertex="1" parent="1">
          <mxGeometry x="1130" y="550" width="30" height="30" as="geometry" />
        </mxCell>
        <mxCell id="FBOypV3YJuFM0SSWteNj-144" style="edgeStyle=none;rounded=0;orthogonalLoop=1;jettySize=auto;html=1;entryX=0;entryY=0;entryDx=0;entryDy=0;strokeWidth=1;" edge="1" parent="1" source="FBOypV3YJuFM0SSWteNj-145" target="FBOypV3YJuFM0SSWteNj-156">
          <mxGeometry relative="1" as="geometry" />
        </mxCell>
        <mxCell id="FBOypV3YJuFM0SSWteNj-145" value="B" style="ellipse;whiteSpace=wrap;html=1;aspect=fixed;" vertex="1" parent="1">
          <mxGeometry x="1130" y="660" width="30" height="30" as="geometry" />
        </mxCell>
        <mxCell id="FBOypV3YJuFM0SSWteNj-146" style="edgeStyle=none;rounded=0;orthogonalLoop=1;jettySize=auto;html=1;entryX=0;entryY=0.5;entryDx=0;entryDy=0;" edge="1" parent="1" source="FBOypV3YJuFM0SSWteNj-149" target="FBOypV3YJuFM0SSWteNj-156">
          <mxGeometry relative="1" as="geometry" />
        </mxCell>
        <mxCell id="FBOypV3YJuFM0SSWteNj-147" style="edgeStyle=none;rounded=0;orthogonalLoop=1;jettySize=auto;html=1;entryX=0;entryY=1;entryDx=0;entryDy=0;fillColor=#0050ef;strokeColor=#001DBC;" edge="1" parent="1" source="FBOypV3YJuFM0SSWteNj-149" target="FBOypV3YJuFM0SSWteNj-153">
          <mxGeometry relative="1" as="geometry" />
        </mxCell>
        <mxCell id="FBOypV3YJuFM0SSWteNj-148" style="edgeStyle=none;rounded=0;orthogonalLoop=1;jettySize=auto;html=1;entryX=0;entryY=1;entryDx=0;entryDy=0;" edge="1" parent="1" source="FBOypV3YJuFM0SSWteNj-149" target="FBOypV3YJuFM0SSWteNj-151">
          <mxGeometry relative="1" as="geometry" />
        </mxCell>
        <mxCell id="FBOypV3YJuFM0SSWteNj-149" value="C" style="ellipse;whiteSpace=wrap;html=1;aspect=fixed;" vertex="1" parent="1">
          <mxGeometry x="1130" y="780" width="30" height="30" as="geometry" />
        </mxCell>
        <mxCell id="FBOypV3YJuFM0SSWteNj-163" style="edgeStyle=none;rounded=0;orthogonalLoop=1;jettySize=auto;html=1;entryX=1;entryY=0.5;entryDx=0;entryDy=0;fontSize=16;strokeWidth=1;" edge="1" parent="1" source="FBOypV3YJuFM0SSWteNj-151" target="FBOypV3YJuFM0SSWteNj-143">
          <mxGeometry relative="1" as="geometry" />
        </mxCell>
        <mxCell id="FBOypV3YJuFM0SSWteNj-151" value="D" style="ellipse;whiteSpace=wrap;html=1;aspect=fixed;" vertex="1" parent="1">
          <mxGeometry x="1260" y="550" width="30" height="30" as="geometry" />
        </mxCell>
        <mxCell id="FBOypV3YJuFM0SSWteNj-152" style="edgeStyle=none;rounded=0;orthogonalLoop=1;jettySize=auto;html=1;fillColor=#0050ef;strokeColor=#001DBC;" edge="1" parent="1" source="FBOypV3YJuFM0SSWteNj-153" target="FBOypV3YJuFM0SSWteNj-160">
          <mxGeometry relative="1" as="geometry" />
        </mxCell>
        <mxCell id="FBOypV3YJuFM0SSWteNj-153" value="E" style="ellipse;whiteSpace=wrap;html=1;aspect=fixed;" vertex="1" parent="1">
          <mxGeometry x="1260" y="660" width="30" height="30" as="geometry" />
        </mxCell>
        <mxCell id="FBOypV3YJuFM0SSWteNj-154" style="edgeStyle=none;rounded=0;orthogonalLoop=1;jettySize=auto;html=1;entryX=0;entryY=0.5;entryDx=0;entryDy=0;strokeWidth=1;" edge="1" parent="1" source="FBOypV3YJuFM0SSWteNj-156" target="FBOypV3YJuFM0SSWteNj-158">
          <mxGeometry relative="1" as="geometry" />
        </mxCell>
        <mxCell id="FBOypV3YJuFM0SSWteNj-155" style="edgeStyle=none;rounded=0;orthogonalLoop=1;jettySize=auto;html=1;entryX=1;entryY=1;entryDx=0;entryDy=0;fontSize=15;strokeWidth=1;" edge="1" parent="1" source="FBOypV3YJuFM0SSWteNj-156" target="FBOypV3YJuFM0SSWteNj-140">
          <mxGeometry relative="1" as="geometry" />
        </mxCell>
        <mxCell id="FBOypV3YJuFM0SSWteNj-156" value="F" style="ellipse;whiteSpace=wrap;html=1;aspect=fixed;" vertex="1" parent="1">
          <mxGeometry x="1260" y="780" width="30" height="30" as="geometry" />
        </mxCell>
        <mxCell id="FBOypV3YJuFM0SSWteNj-157" style="edgeStyle=none;rounded=0;orthogonalLoop=1;jettySize=auto;html=1;entryX=0;entryY=1;entryDx=0;entryDy=0;strokeWidth=1;" edge="1" parent="1" source="FBOypV3YJuFM0SSWteNj-158" target="FBOypV3YJuFM0SSWteNj-160">
          <mxGeometry relative="1" as="geometry" />
        </mxCell>
        <mxCell id="FBOypV3YJuFM0SSWteNj-158" value="G" style="ellipse;whiteSpace=wrap;html=1;aspect=fixed;" vertex="1" parent="1">
          <mxGeometry x="1380" y="780" width="30" height="30" as="geometry" />
        </mxCell>
        <mxCell id="FBOypV3YJuFM0SSWteNj-159" style="edgeStyle=none;rounded=0;orthogonalLoop=1;jettySize=auto;html=1;entryX=1;entryY=0.5;entryDx=0;entryDy=0;fontSize=15;strokeWidth=1;" edge="1" parent="1" source="FBOypV3YJuFM0SSWteNj-160" target="FBOypV3YJuFM0SSWteNj-156">
          <mxGeometry relative="1" as="geometry" />
        </mxCell>
        <mxCell id="FBOypV3YJuFM0SSWteNj-162" style="edgeStyle=none;rounded=0;orthogonalLoop=1;jettySize=auto;html=1;entryX=1;entryY=1;entryDx=0;entryDy=0;fontSize=16;strokeWidth=1;" edge="1" parent="1" source="FBOypV3YJuFM0SSWteNj-160" target="FBOypV3YJuFM0SSWteNj-151">
          <mxGeometry relative="1" as="geometry" />
        </mxCell>
        <mxCell id="FBOypV3YJuFM0SSWteNj-160" value="E" style="ellipse;whiteSpace=wrap;html=1;aspect=fixed;" vertex="1" parent="1">
          <mxGeometry x="1470" y="660" width="30" height="30" as="geometry" />
        </mxCell>
        <mxCell id="FBOypV3YJuFM0SSWteNj-161" value="Reseau R*(f) avec chemin&lt;br style=&quot;font-size: 17px;&quot;&gt;de E vers S" style="text;html=1;strokeColor=none;fillColor=none;align=center;verticalAlign=middle;whiteSpace=wrap;rounded=0;fontSize=17;strokeWidth=2;" vertex="1" parent="1">
          <mxGeometry x="1090" y="810" width="230" height="30" as="geometry" />
        </mxCell>
        <mxCell id="FBOypV3YJuFM0SSWteNj-166" style="edgeStyle=none;rounded=0;orthogonalLoop=1;jettySize=auto;html=1;entryX=-0.1;entryY=0.908;entryDx=0;entryDy=0;entryPerimeter=0;strokeWidth=3;" edge="1" parent="1" source="FBOypV3YJuFM0SSWteNj-170" target="FBOypV3YJuFM0SSWteNj-173">
          <mxGeometry relative="1" as="geometry" />
        </mxCell>
        <mxCell id="FBOypV3YJuFM0SSWteNj-167" style="edgeStyle=none;rounded=0;orthogonalLoop=1;jettySize=auto;html=1;entryX=0;entryY=0.5;entryDx=0;entryDy=0;" edge="1" parent="1" source="FBOypV3YJuFM0SSWteNj-170" target="FBOypV3YJuFM0SSWteNj-175">
          <mxGeometry relative="1" as="geometry" />
        </mxCell>
        <mxCell id="FBOypV3YJuFM0SSWteNj-168" style="edgeStyle=none;rounded=0;orthogonalLoop=1;jettySize=auto;html=1;entryX=0;entryY=0;entryDx=0;entryDy=0;strokeWidth=3;" edge="1" parent="1" source="FBOypV3YJuFM0SSWteNj-170" target="FBOypV3YJuFM0SSWteNj-179">
          <mxGeometry relative="1" as="geometry" />
        </mxCell>
        <mxCell id="FBOypV3YJuFM0SSWteNj-169" style="edgeStyle=none;rounded=0;orthogonalLoop=1;jettySize=auto;html=1;entryX=0;entryY=0.5;entryDx=0;entryDy=0;strokeWidth=3;" edge="1" parent="1" source="FBOypV3YJuFM0SSWteNj-170" target="FBOypV3YJuFM0SSWteNj-186">
          <mxGeometry relative="1" as="geometry" />
        </mxCell>
        <mxCell id="FBOypV3YJuFM0SSWteNj-170" value="E" style="ellipse;whiteSpace=wrap;html=1;aspect=fixed;" vertex="1" parent="1">
          <mxGeometry x="520" y="650" width="30" height="30" as="geometry" />
        </mxCell>
        <mxCell id="FBOypV3YJuFM0SSWteNj-171" style="edgeStyle=none;rounded=0;orthogonalLoop=1;jettySize=auto;html=1;entryX=0;entryY=0;entryDx=0;entryDy=0;" edge="1" parent="1" source="FBOypV3YJuFM0SSWteNj-173" target="FBOypV3YJuFM0SSWteNj-183">
          <mxGeometry relative="1" as="geometry" />
        </mxCell>
        <mxCell id="FBOypV3YJuFM0SSWteNj-172" style="edgeStyle=none;rounded=0;orthogonalLoop=1;jettySize=auto;html=1;entryX=0;entryY=0.5;entryDx=0;entryDy=0;strokeWidth=3;" edge="1" parent="1" source="FBOypV3YJuFM0SSWteNj-173" target="FBOypV3YJuFM0SSWteNj-181">
          <mxGeometry relative="1" as="geometry" />
        </mxCell>
        <mxCell id="FBOypV3YJuFM0SSWteNj-173" value="A" style="ellipse;whiteSpace=wrap;html=1;aspect=fixed;strokeWidth=3;" vertex="1" parent="1">
          <mxGeometry x="630" y="540" width="30" height="30" as="geometry" />
        </mxCell>
        <mxCell id="FBOypV3YJuFM0SSWteNj-174" style="edgeStyle=none;rounded=0;orthogonalLoop=1;jettySize=auto;html=1;entryX=0;entryY=0;entryDx=0;entryDy=0;strokeWidth=1;" edge="1" parent="1" source="FBOypV3YJuFM0SSWteNj-175" target="FBOypV3YJuFM0SSWteNj-186">
          <mxGeometry relative="1" as="geometry" />
        </mxCell>
        <mxCell id="FBOypV3YJuFM0SSWteNj-175" value="B" style="ellipse;whiteSpace=wrap;html=1;aspect=fixed;strokeWidth=3;" vertex="1" parent="1">
          <mxGeometry x="630" y="650" width="30" height="30" as="geometry" />
        </mxCell>
        <mxCell id="FBOypV3YJuFM0SSWteNj-176" style="edgeStyle=none;rounded=0;orthogonalLoop=1;jettySize=auto;html=1;entryX=0;entryY=0.5;entryDx=0;entryDy=0;" edge="1" parent="1" source="FBOypV3YJuFM0SSWteNj-179" target="FBOypV3YJuFM0SSWteNj-186">
          <mxGeometry relative="1" as="geometry" />
        </mxCell>
        <mxCell id="FBOypV3YJuFM0SSWteNj-177" style="edgeStyle=none;rounded=0;orthogonalLoop=1;jettySize=auto;html=1;entryX=0;entryY=1;entryDx=0;entryDy=0;strokeWidth=3;" edge="1" parent="1" source="FBOypV3YJuFM0SSWteNj-179" target="FBOypV3YJuFM0SSWteNj-183">
          <mxGeometry relative="1" as="geometry" />
        </mxCell>
        <mxCell id="FBOypV3YJuFM0SSWteNj-178" style="edgeStyle=none;rounded=0;orthogonalLoop=1;jettySize=auto;html=1;entryX=0;entryY=1;entryDx=0;entryDy=0;" edge="1" parent="1" source="FBOypV3YJuFM0SSWteNj-179" target="FBOypV3YJuFM0SSWteNj-181">
          <mxGeometry relative="1" as="geometry" />
        </mxCell>
        <mxCell id="FBOypV3YJuFM0SSWteNj-179" value="C" style="ellipse;whiteSpace=wrap;html=1;aspect=fixed;strokeWidth=3;" vertex="1" parent="1">
          <mxGeometry x="630" y="770" width="30" height="30" as="geometry" />
        </mxCell>
        <mxCell id="FBOypV3YJuFM0SSWteNj-180" style="edgeStyle=none;rounded=0;orthogonalLoop=1;jettySize=auto;html=1;entryX=0;entryY=0;entryDx=0;entryDy=0;strokeWidth=3;" edge="1" parent="1" source="FBOypV3YJuFM0SSWteNj-181" target="FBOypV3YJuFM0SSWteNj-189">
          <mxGeometry relative="1" as="geometry" />
        </mxCell>
        <mxCell id="FBOypV3YJuFM0SSWteNj-181" value="D" style="ellipse;whiteSpace=wrap;html=1;aspect=fixed;strokeWidth=3;" vertex="1" parent="1">
          <mxGeometry x="760" y="540" width="30" height="30" as="geometry" />
        </mxCell>
        <mxCell id="FBOypV3YJuFM0SSWteNj-182" style="edgeStyle=none;rounded=0;orthogonalLoop=1;jettySize=auto;html=1;strokeWidth=3;" edge="1" parent="1" source="FBOypV3YJuFM0SSWteNj-183" target="FBOypV3YJuFM0SSWteNj-189">
          <mxGeometry relative="1" as="geometry" />
        </mxCell>
        <mxCell id="FBOypV3YJuFM0SSWteNj-183" value="H" style="ellipse;whiteSpace=wrap;html=1;aspect=fixed;strokeWidth=3;" vertex="1" parent="1">
          <mxGeometry x="760" y="650" width="30" height="30" as="geometry" />
        </mxCell>
        <mxCell id="FBOypV3YJuFM0SSWteNj-184" style="edgeStyle=none;rounded=0;orthogonalLoop=1;jettySize=auto;html=1;entryX=0;entryY=0.5;entryDx=0;entryDy=0;strokeWidth=1;" edge="1" parent="1" source="FBOypV3YJuFM0SSWteNj-186" target="FBOypV3YJuFM0SSWteNj-188">
          <mxGeometry relative="1" as="geometry" />
        </mxCell>
        <mxCell id="FBOypV3YJuFM0SSWteNj-185" style="edgeStyle=none;rounded=0;orthogonalLoop=1;jettySize=auto;html=1;entryX=0;entryY=1;entryDx=0;entryDy=0;strokeWidth=3;" edge="1" parent="1" source="FBOypV3YJuFM0SSWteNj-186" target="FBOypV3YJuFM0SSWteNj-189">
          <mxGeometry relative="1" as="geometry" />
        </mxCell>
        <mxCell id="FBOypV3YJuFM0SSWteNj-186" value="F" style="ellipse;whiteSpace=wrap;html=1;aspect=fixed;strokeWidth=3;" vertex="1" parent="1">
          <mxGeometry x="760" y="770" width="30" height="30" as="geometry" />
        </mxCell>
        <mxCell id="FBOypV3YJuFM0SSWteNj-187" style="edgeStyle=none;rounded=0;orthogonalLoop=1;jettySize=auto;html=1;entryX=0;entryY=1;entryDx=0;entryDy=0;strokeWidth=1;" edge="1" parent="1" source="FBOypV3YJuFM0SSWteNj-188" target="FBOypV3YJuFM0SSWteNj-189">
          <mxGeometry relative="1" as="geometry" />
        </mxCell>
        <mxCell id="FBOypV3YJuFM0SSWteNj-188" value="G" style="ellipse;whiteSpace=wrap;html=1;aspect=fixed;" vertex="1" parent="1">
          <mxGeometry x="880" y="770" width="30" height="30" as="geometry" />
        </mxCell>
        <mxCell id="FBOypV3YJuFM0SSWteNj-189" value="S" style="ellipse;whiteSpace=wrap;html=1;aspect=fixed;" vertex="1" parent="1">
          <mxGeometry x="970" y="650" width="30" height="30" as="geometry" />
        </mxCell>
        <mxCell id="FBOypV3YJuFM0SSWteNj-190" value="Nouveau flot f" style="text;html=1;strokeColor=none;fillColor=none;align=center;verticalAlign=middle;whiteSpace=wrap;rounded=0;fontSize=16;" vertex="1" parent="1">
          <mxGeometry x="580" y="820" width="230" height="30" as="geometry" />
        </mxCell>
        <mxCell id="FBOypV3YJuFM0SSWteNj-195" style="edgeStyle=none;rounded=0;orthogonalLoop=1;jettySize=auto;html=1;entryX=0;entryY=0.5;entryDx=0;entryDy=0;strokeWidth=1;" edge="1" parent="1">
          <mxGeometry relative="1" as="geometry">
            <mxPoint x="549.9999999999732" y="664.17" as="sourcePoint" />
            <mxPoint x="629.9999999999463" y="664.17" as="targetPoint" />
          </mxGeometry>
        </mxCell>
      </root>
    </mxGraphModel>
  </diagram>
  <diagram id="2m_kGbaoVg73tLxpL3vB" name="problem1">
    <mxGraphModel dx="1279" dy="702" grid="1" gridSize="10" guides="1" tooltips="1" connect="1" arrows="1" fold="1" page="1" pageScale="1" pageWidth="827" pageHeight="583" math="0" shadow="0">
      <root>
        <mxCell id="-kxi8PNOjZ81SoGn5OAi-0" />
        <mxCell id="-kxi8PNOjZ81SoGn5OAi-1" parent="-kxi8PNOjZ81SoGn5OAi-0" />
        <mxCell id="-kxi8PNOjZ81SoGn5OAi-2" value="" style="triangle;whiteSpace=wrap;html=1;fontSize=16;strokeWidth=1;" vertex="1" parent="-kxi8PNOjZ81SoGn5OAi-1">
          <mxGeometry x="220" y="90" width="20" height="30" as="geometry" />
        </mxCell>
        <mxCell id="-kxi8PNOjZ81SoGn5OAi-3" value="" style="ellipse;whiteSpace=wrap;html=1;aspect=fixed;fontSize=16;strokeWidth=1;" vertex="1" parent="-kxi8PNOjZ81SoGn5OAi-1">
          <mxGeometry x="130" y="90" width="30" height="30" as="geometry" />
        </mxCell>
        <mxCell id="-kxi8PNOjZ81SoGn5OAi-4" value="" style="ellipse;whiteSpace=wrap;html=1;aspect=fixed;fontSize=16;strokeWidth=1;" vertex="1" parent="-kxi8PNOjZ81SoGn5OAi-1">
          <mxGeometry x="290" y="90" width="30" height="30" as="geometry" />
        </mxCell>
        <mxCell id="-kxi8PNOjZ81SoGn5OAi-30" value="" style="endArrow=none;html=1;rounded=0;fontSize=16;strokeWidth=1;exitX=1;exitY=0.5;exitDx=0;exitDy=0;entryX=0;entryY=0.5;entryDx=0;entryDy=0;" edge="1" parent="-kxi8PNOjZ81SoGn5OAi-1" source="-kxi8PNOjZ81SoGn5OAi-3" target="-kxi8PNOjZ81SoGn5OAi-2">
          <mxGeometry width="50" height="50" relative="1" as="geometry">
            <mxPoint x="50" y="320" as="sourcePoint" />
            <mxPoint x="100" y="270" as="targetPoint" />
          </mxGeometry>
        </mxCell>
        <mxCell id="-kxi8PNOjZ81SoGn5OAi-31" value="" style="endArrow=none;html=1;rounded=0;fontSize=16;strokeWidth=1;exitX=1;exitY=0.5;exitDx=0;exitDy=0;entryX=0;entryY=0.5;entryDx=0;entryDy=0;" edge="1" parent="-kxi8PNOjZ81SoGn5OAi-1" source="-kxi8PNOjZ81SoGn5OAi-2" target="-kxi8PNOjZ81SoGn5OAi-4">
          <mxGeometry width="50" height="50" relative="1" as="geometry">
            <mxPoint x="50" y="320" as="sourcePoint" />
            <mxPoint x="100" y="270" as="targetPoint" />
          </mxGeometry>
        </mxCell>
        <mxCell id="-kxi8PNOjZ81SoGn5OAi-32" value="" style="triangle;whiteSpace=wrap;html=1;fontSize=16;strokeWidth=1;fillColor=#6d8764;fontColor=#ffffff;strokeColor=#3A5431;" vertex="1" parent="-kxi8PNOjZ81SoGn5OAi-1">
          <mxGeometry x="220" y="250" width="20" height="30" as="geometry" />
        </mxCell>
        <mxCell id="-kxi8PNOjZ81SoGn5OAi-33" value="" style="ellipse;whiteSpace=wrap;html=1;aspect=fixed;fontSize=16;strokeWidth=1;" vertex="1" parent="-kxi8PNOjZ81SoGn5OAi-1">
          <mxGeometry x="130" y="250" width="30" height="30" as="geometry" />
        </mxCell>
        <mxCell id="-kxi8PNOjZ81SoGn5OAi-34" value="" style="ellipse;whiteSpace=wrap;html=1;aspect=fixed;fontSize=16;strokeWidth=1;" vertex="1" parent="-kxi8PNOjZ81SoGn5OAi-1">
          <mxGeometry x="290" y="250" width="30" height="30" as="geometry" />
        </mxCell>
        <mxCell id="-kxi8PNOjZ81SoGn5OAi-35" value="" style="endArrow=none;html=1;rounded=0;fontSize=16;strokeWidth=1;exitX=1;exitY=0.5;exitDx=0;exitDy=0;entryX=0;entryY=0.5;entryDx=0;entryDy=0;" edge="1" parent="-kxi8PNOjZ81SoGn5OAi-1" source="-kxi8PNOjZ81SoGn5OAi-33" target="-kxi8PNOjZ81SoGn5OAi-32">
          <mxGeometry width="50" height="50" relative="1" as="geometry">
            <mxPoint x="50" y="480" as="sourcePoint" />
            <mxPoint x="100" y="430" as="targetPoint" />
          </mxGeometry>
        </mxCell>
        <mxCell id="-kxi8PNOjZ81SoGn5OAi-36" value="" style="endArrow=none;html=1;rounded=0;fontSize=16;strokeWidth=1;exitX=1;exitY=0.5;exitDx=0;exitDy=0;entryX=0;entryY=0.5;entryDx=0;entryDy=0;" edge="1" parent="-kxi8PNOjZ81SoGn5OAi-1" source="-kxi8PNOjZ81SoGn5OAi-32" target="-kxi8PNOjZ81SoGn5OAi-34">
          <mxGeometry width="50" height="50" relative="1" as="geometry">
            <mxPoint x="50" y="480" as="sourcePoint" />
            <mxPoint x="100" y="430" as="targetPoint" />
          </mxGeometry>
        </mxCell>
        <mxCell id="-kxi8PNOjZ81SoGn5OAi-37" value="" style="ellipse;whiteSpace=wrap;html=1;aspect=fixed;fontSize=16;strokeWidth=1;" vertex="1" parent="-kxi8PNOjZ81SoGn5OAi-1">
          <mxGeometry x="210" y="170" width="30" height="30" as="geometry" />
        </mxCell>
        <mxCell id="-kxi8PNOjZ81SoGn5OAi-38" value="" style="ellipse;whiteSpace=wrap;html=1;aspect=fixed;fontSize=16;strokeWidth=1;" vertex="1" parent="-kxi8PNOjZ81SoGn5OAi-1">
          <mxGeometry x="414" y="170" width="30" height="30" as="geometry" />
        </mxCell>
        <mxCell id="-kxi8PNOjZ81SoGn5OAi-40" value="" style="ellipse;whiteSpace=wrap;html=1;aspect=fixed;fontSize=16;strokeWidth=1;" vertex="1" parent="-kxi8PNOjZ81SoGn5OAi-1">
          <mxGeometry x="40" y="170" width="30" height="30" as="geometry" />
        </mxCell>
        <mxCell id="-kxi8PNOjZ81SoGn5OAi-41" value="" style="triangle;whiteSpace=wrap;html=1;fontSize=16;strokeWidth=1;fillColor=#6d8764;fontColor=#ffffff;strokeColor=#3A5431;" vertex="1" parent="-kxi8PNOjZ81SoGn5OAi-1">
          <mxGeometry x="110" y="170" width="20" height="30" as="geometry" />
        </mxCell>
        <mxCell id="-kxi8PNOjZ81SoGn5OAi-43" value="" style="triangle;whiteSpace=wrap;html=1;fontSize=16;strokeWidth=1;fillColor=#6d8764;fontColor=#ffffff;strokeColor=#3A5431;" vertex="1" parent="-kxi8PNOjZ81SoGn5OAi-1">
          <mxGeometry x="130" y="170" width="20" height="30" as="geometry" />
        </mxCell>
        <mxCell id="-kxi8PNOjZ81SoGn5OAi-44" value="" style="triangle;whiteSpace=wrap;html=1;fontSize=16;strokeWidth=1;" vertex="1" parent="-kxi8PNOjZ81SoGn5OAi-1">
          <mxGeometry x="150" y="170" width="20" height="30" as="geometry" />
        </mxCell>
        <mxCell id="-kxi8PNOjZ81SoGn5OAi-45" value="" style="triangle;whiteSpace=wrap;html=1;fontSize=16;strokeWidth=1;fillColor=#6d8764;fontColor=#ffffff;strokeColor=#3A5431;" vertex="1" parent="-kxi8PNOjZ81SoGn5OAi-1">
          <mxGeometry x="320" y="170" width="20" height="30" as="geometry" />
        </mxCell>
        <mxCell id="-kxi8PNOjZ81SoGn5OAi-46" value="" style="triangle;whiteSpace=wrap;html=1;fontSize=16;strokeWidth=1;rotation=-45;fillColor=#6d8764;fontColor=#ffffff;strokeColor=#3A5431;" vertex="1" parent="-kxi8PNOjZ81SoGn5OAi-1">
          <mxGeometry x="260" y="130" width="20" height="30" as="geometry" />
        </mxCell>
        <mxCell id="-kxi8PNOjZ81SoGn5OAi-47" value="" style="triangle;whiteSpace=wrap;html=1;fontSize=16;strokeWidth=1;rotation=45;fillColor=#6d8764;fontColor=#ffffff;strokeColor=#3A5431;" vertex="1" parent="-kxi8PNOjZ81SoGn5OAi-1">
          <mxGeometry x="260" y="210" width="20" height="30" as="geometry" />
        </mxCell>
        <mxCell id="-kxi8PNOjZ81SoGn5OAi-48" value="" style="triangle;whiteSpace=wrap;html=1;fontSize=16;strokeWidth=1;rotation=45;fillColor=#6d8764;fontColor=#ffffff;strokeColor=#3A5431;" vertex="1" parent="-kxi8PNOjZ81SoGn5OAi-1">
          <mxGeometry x="180" y="140" width="20" height="30" as="geometry" />
        </mxCell>
        <mxCell id="-kxi8PNOjZ81SoGn5OAi-49" value="" style="endArrow=none;html=1;rounded=0;fontSize=16;strokeWidth=1;entryX=0;entryY=0.5;entryDx=0;entryDy=0;exitX=1;exitY=0.5;exitDx=0;exitDy=0;" edge="1" parent="-kxi8PNOjZ81SoGn5OAi-1" source="-kxi8PNOjZ81SoGn5OAi-40" target="-kxi8PNOjZ81SoGn5OAi-41">
          <mxGeometry width="50" height="50" relative="1" as="geometry">
            <mxPoint x="90" y="230" as="sourcePoint" />
            <mxPoint x="300" y="275" as="targetPoint" />
          </mxGeometry>
        </mxCell>
        <mxCell id="-kxi8PNOjZ81SoGn5OAi-50" value="" style="endArrow=none;html=1;rounded=0;fontSize=16;strokeWidth=1;exitX=1;exitY=0.5;exitDx=0;exitDy=0;entryX=0;entryY=1;entryDx=0;entryDy=0;" edge="1" parent="-kxi8PNOjZ81SoGn5OAi-1" source="-kxi8PNOjZ81SoGn5OAi-56" target="-kxi8PNOjZ81SoGn5OAi-38">
          <mxGeometry width="50" height="50" relative="1" as="geometry">
            <mxPoint x="260" y="285" as="sourcePoint" />
            <mxPoint x="310" y="285" as="targetPoint" />
          </mxGeometry>
        </mxCell>
        <mxCell id="-kxi8PNOjZ81SoGn5OAi-51" value="" style="endArrow=none;html=1;rounded=0;fontSize=16;strokeWidth=1;entryX=0;entryY=0.5;entryDx=0;entryDy=0;exitX=1.122;exitY=0.278;exitDx=0;exitDy=0;exitPerimeter=0;" edge="1" parent="-kxi8PNOjZ81SoGn5OAi-1" source="-kxi8PNOjZ81SoGn5OAi-34" target="-kxi8PNOjZ81SoGn5OAi-57">
          <mxGeometry width="50" height="50" relative="1" as="geometry">
            <mxPoint x="340" y="260" as="sourcePoint" />
            <mxPoint x="320" y="295" as="targetPoint" />
          </mxGeometry>
        </mxCell>
        <mxCell id="-kxi8PNOjZ81SoGn5OAi-52" value="" style="triangle;whiteSpace=wrap;html=1;fontSize=16;strokeWidth=1;rotation=-45;fillColor=#6d8764;fontColor=#ffffff;strokeColor=#3A5431;" vertex="1" parent="-kxi8PNOjZ81SoGn5OAi-1">
          <mxGeometry x="100" y="120" width="20" height="30" as="geometry" />
        </mxCell>
        <mxCell id="-kxi8PNOjZ81SoGn5OAi-53" value="" style="triangle;whiteSpace=wrap;html=1;fontSize=16;strokeWidth=1;rotation=45;fillColor=#6d8764;fontColor=#ffffff;strokeColor=#3A5431;" vertex="1" parent="-kxi8PNOjZ81SoGn5OAi-1">
          <mxGeometry x="100" y="220" width="20" height="30" as="geometry" />
        </mxCell>
        <mxCell id="-kxi8PNOjZ81SoGn5OAi-54" value="" style="triangle;whiteSpace=wrap;html=1;fontSize=16;strokeWidth=1;rotation=30;" vertex="1" parent="-kxi8PNOjZ81SoGn5OAi-1">
          <mxGeometry x="370" y="140" width="20" height="30" as="geometry" />
        </mxCell>
        <mxCell id="-kxi8PNOjZ81SoGn5OAi-55" value="" style="triangle;whiteSpace=wrap;html=1;fontSize=16;strokeWidth=1;rotation=30;fillColor=#6d8764;fontColor=#ffffff;strokeColor=#3A5431;" vertex="1" parent="-kxi8PNOjZ81SoGn5OAi-1">
          <mxGeometry x="350" y="130" width="20" height="30" as="geometry" />
        </mxCell>
        <mxCell id="-kxi8PNOjZ81SoGn5OAi-56" value="" style="triangle;whiteSpace=wrap;html=1;fontSize=16;strokeWidth=1;rotation=-30;fillColor=#6d8764;fontColor=#ffffff;strokeColor=#3A5431;" vertex="1" parent="-kxi8PNOjZ81SoGn5OAi-1">
          <mxGeometry x="370" y="210" width="20" height="30" as="geometry" />
        </mxCell>
        <mxCell id="-kxi8PNOjZ81SoGn5OAi-57" value="" style="triangle;whiteSpace=wrap;html=1;fontSize=16;strokeWidth=1;rotation=-30;fillColor=#6d8764;fontColor=#ffffff;strokeColor=#3A5431;" vertex="1" parent="-kxi8PNOjZ81SoGn5OAi-1">
          <mxGeometry x="350" y="220" width="20" height="30" as="geometry" />
        </mxCell>
        <mxCell id="-kxi8PNOjZ81SoGn5OAi-59" value="" style="endArrow=none;html=1;rounded=0;fontSize=16;strokeWidth=1;exitX=0;exitY=0.5;exitDx=0;exitDy=0;entryX=1;entryY=1;entryDx=0;entryDy=0;" edge="1" parent="-kxi8PNOjZ81SoGn5OAi-1" source="-kxi8PNOjZ81SoGn5OAi-55" target="-kxi8PNOjZ81SoGn5OAi-4">
          <mxGeometry width="50" height="50" relative="1" as="geometry">
            <mxPoint x="50" y="320" as="sourcePoint" />
            <mxPoint x="100" y="270" as="targetPoint" />
          </mxGeometry>
        </mxCell>
        <mxCell id="-kxi8PNOjZ81SoGn5OAi-60" value="" style="endArrow=none;html=1;rounded=0;fontSize=16;strokeWidth=1;exitX=0;exitY=0;exitDx=0;exitDy=0;entryX=1;entryY=0.5;entryDx=0;entryDy=0;" edge="1" parent="-kxi8PNOjZ81SoGn5OAi-1" source="-kxi8PNOjZ81SoGn5OAi-38" target="-kxi8PNOjZ81SoGn5OAi-54">
          <mxGeometry width="50" height="50" relative="1" as="geometry">
            <mxPoint x="50" y="320" as="sourcePoint" />
            <mxPoint x="100" y="270" as="targetPoint" />
          </mxGeometry>
        </mxCell>
        <mxCell id="-kxi8PNOjZ81SoGn5OAi-61" value="" style="endArrow=none;html=1;rounded=0;fontSize=16;strokeWidth=1;exitX=0;exitY=0.5;exitDx=0;exitDy=0;entryX=1;entryY=0.5;entryDx=0;entryDy=0;" edge="1" parent="-kxi8PNOjZ81SoGn5OAi-1" source="-kxi8PNOjZ81SoGn5OAi-45" target="-kxi8PNOjZ81SoGn5OAi-37">
          <mxGeometry width="50" height="50" relative="1" as="geometry">
            <mxPoint x="50" y="320" as="sourcePoint" />
            <mxPoint x="100" y="270" as="targetPoint" />
          </mxGeometry>
        </mxCell>
        <mxCell id="-kxi8PNOjZ81SoGn5OAi-62" value="" style="endArrow=none;html=1;rounded=0;fontSize=16;strokeWidth=1;exitX=0;exitY=0.5;exitDx=0;exitDy=0;entryX=1;entryY=0.5;entryDx=0;entryDy=0;" edge="1" parent="-kxi8PNOjZ81SoGn5OAi-1" source="-kxi8PNOjZ81SoGn5OAi-38" target="-kxi8PNOjZ81SoGn5OAi-45">
          <mxGeometry width="50" height="50" relative="1" as="geometry">
            <mxPoint x="50" y="320" as="sourcePoint" />
            <mxPoint x="100" y="270" as="targetPoint" />
          </mxGeometry>
        </mxCell>
        <mxCell id="-kxi8PNOjZ81SoGn5OAi-63" value="" style="endArrow=none;html=1;rounded=0;fontSize=16;strokeWidth=1;entryX=0;entryY=0.5;entryDx=0;entryDy=0;exitX=1;exitY=0;exitDx=0;exitDy=0;" edge="1" parent="-kxi8PNOjZ81SoGn5OAi-1" source="-kxi8PNOjZ81SoGn5OAi-37" target="-kxi8PNOjZ81SoGn5OAi-46">
          <mxGeometry width="50" height="50" relative="1" as="geometry">
            <mxPoint x="263" y="170" as="sourcePoint" />
            <mxPoint x="100" y="270" as="targetPoint" />
          </mxGeometry>
        </mxCell>
        <mxCell id="-kxi8PNOjZ81SoGn5OAi-64" value="" style="endArrow=none;html=1;rounded=0;fontSize=16;strokeWidth=1;exitX=1;exitY=1;exitDx=0;exitDy=0;entryX=0;entryY=0.5;entryDx=0;entryDy=0;" edge="1" parent="-kxi8PNOjZ81SoGn5OAi-1" source="-kxi8PNOjZ81SoGn5OAi-37" target="-kxi8PNOjZ81SoGn5OAi-47">
          <mxGeometry width="50" height="50" relative="1" as="geometry">
            <mxPoint x="50" y="320" as="sourcePoint" />
            <mxPoint x="100" y="270" as="targetPoint" />
          </mxGeometry>
        </mxCell>
        <mxCell id="-kxi8PNOjZ81SoGn5OAi-65" value="" style="endArrow=none;html=1;rounded=0;fontSize=16;strokeWidth=1;exitX=0;exitY=0;exitDx=0;exitDy=0;entryX=1;entryY=0.5;entryDx=0;entryDy=0;" edge="1" parent="-kxi8PNOjZ81SoGn5OAi-1" source="-kxi8PNOjZ81SoGn5OAi-34" target="-kxi8PNOjZ81SoGn5OAi-47">
          <mxGeometry width="50" height="50" relative="1" as="geometry">
            <mxPoint x="50" y="320" as="sourcePoint" />
            <mxPoint x="100" y="270" as="targetPoint" />
          </mxGeometry>
        </mxCell>
        <mxCell id="-kxi8PNOjZ81SoGn5OAi-67" value="" style="endArrow=none;html=1;rounded=0;fontSize=16;strokeWidth=1;exitX=0;exitY=1;exitDx=0;exitDy=0;entryX=1;entryY=0.5;entryDx=0;entryDy=0;" edge="1" parent="-kxi8PNOjZ81SoGn5OAi-1" source="-kxi8PNOjZ81SoGn5OAi-4" target="-kxi8PNOjZ81SoGn5OAi-46">
          <mxGeometry width="50" height="50" relative="1" as="geometry">
            <mxPoint x="50" y="320" as="sourcePoint" />
            <mxPoint x="305" y="140" as="targetPoint" />
          </mxGeometry>
        </mxCell>
        <mxCell id="-kxi8PNOjZ81SoGn5OAi-68" value="" style="endArrow=none;html=1;rounded=0;fontSize=16;strokeWidth=1;exitX=1;exitY=1;exitDx=0;exitDy=0;entryX=0;entryY=0.5;entryDx=0;entryDy=0;" edge="1" parent="-kxi8PNOjZ81SoGn5OAi-1" source="-kxi8PNOjZ81SoGn5OAi-40" target="-kxi8PNOjZ81SoGn5OAi-53">
          <mxGeometry width="50" height="50" relative="1" as="geometry">
            <mxPoint x="50" y="320" as="sourcePoint" />
            <mxPoint x="100" y="270" as="targetPoint" />
          </mxGeometry>
        </mxCell>
        <mxCell id="-kxi8PNOjZ81SoGn5OAi-69" value="" style="endArrow=none;html=1;rounded=0;fontSize=16;strokeWidth=1;exitX=0;exitY=0.5;exitDx=0;exitDy=0;entryX=1;entryY=0;entryDx=0;entryDy=0;" edge="1" parent="-kxi8PNOjZ81SoGn5OAi-1" source="-kxi8PNOjZ81SoGn5OAi-52" target="-kxi8PNOjZ81SoGn5OAi-40">
          <mxGeometry width="50" height="50" relative="1" as="geometry">
            <mxPoint x="50" y="320" as="sourcePoint" />
            <mxPoint x="100" y="270" as="targetPoint" />
          </mxGeometry>
        </mxCell>
        <mxCell id="-kxi8PNOjZ81SoGn5OAi-70" value="" style="endArrow=none;html=1;rounded=0;fontSize=16;strokeWidth=1;exitX=0;exitY=1;exitDx=0;exitDy=0;entryX=1;entryY=0.5;entryDx=0;entryDy=0;" edge="1" parent="-kxi8PNOjZ81SoGn5OAi-1" source="-kxi8PNOjZ81SoGn5OAi-3" target="-kxi8PNOjZ81SoGn5OAi-52">
          <mxGeometry width="50" height="50" relative="1" as="geometry">
            <mxPoint x="50" y="320" as="sourcePoint" />
            <mxPoint x="100" y="270" as="targetPoint" />
          </mxGeometry>
        </mxCell>
        <mxCell id="-kxi8PNOjZ81SoGn5OAi-71" value="" style="endArrow=none;html=1;rounded=0;fontSize=16;strokeWidth=1;exitX=0;exitY=0.5;exitDx=0;exitDy=0;entryX=1;entryY=0.5;entryDx=0;entryDy=0;" edge="1" parent="-kxi8PNOjZ81SoGn5OAi-1" source="-kxi8PNOjZ81SoGn5OAi-37" target="-kxi8PNOjZ81SoGn5OAi-44">
          <mxGeometry width="50" height="50" relative="1" as="geometry">
            <mxPoint x="50" y="320" as="sourcePoint" />
            <mxPoint x="100" y="270" as="targetPoint" />
          </mxGeometry>
        </mxCell>
        <mxCell id="-kxi8PNOjZ81SoGn5OAi-72" value="" style="endArrow=none;html=1;rounded=0;fontSize=16;strokeWidth=1;exitX=1;exitY=1;exitDx=0;exitDy=0;entryX=0;entryY=0.5;entryDx=0;entryDy=0;" edge="1" parent="-kxi8PNOjZ81SoGn5OAi-1" source="-kxi8PNOjZ81SoGn5OAi-3" target="-kxi8PNOjZ81SoGn5OAi-48">
          <mxGeometry width="50" height="50" relative="1" as="geometry">
            <mxPoint x="50" y="320" as="sourcePoint" />
            <mxPoint x="100" y="270" as="targetPoint" />
          </mxGeometry>
        </mxCell>
        <mxCell id="-kxi8PNOjZ81SoGn5OAi-73" value="" style="endArrow=none;html=1;rounded=0;fontSize=16;strokeWidth=1;exitX=1;exitY=0.5;exitDx=0;exitDy=0;entryX=0;entryY=0;entryDx=0;entryDy=0;" edge="1" parent="-kxi8PNOjZ81SoGn5OAi-1" source="-kxi8PNOjZ81SoGn5OAi-48" target="-kxi8PNOjZ81SoGn5OAi-37">
          <mxGeometry width="50" height="50" relative="1" as="geometry">
            <mxPoint x="50" y="320" as="sourcePoint" />
            <mxPoint x="100" y="270" as="targetPoint" />
          </mxGeometry>
        </mxCell>
        <mxCell id="-kxi8PNOjZ81SoGn5OAi-74" value="" style="endArrow=none;html=1;rounded=0;fontSize=16;strokeWidth=1;exitX=1;exitY=0.5;exitDx=0;exitDy=0;entryX=0;entryY=0;entryDx=0;entryDy=0;" edge="1" parent="-kxi8PNOjZ81SoGn5OAi-1" source="-kxi8PNOjZ81SoGn5OAi-53" target="-kxi8PNOjZ81SoGn5OAi-33">
          <mxGeometry width="50" height="50" relative="1" as="geometry">
            <mxPoint x="50" y="320" as="sourcePoint" />
            <mxPoint x="100" y="270" as="targetPoint" />
          </mxGeometry>
        </mxCell>
        <mxCell id="-kxi8PNOjZ81SoGn5OAi-76" value="Exemple de flot bloquant non maximum" style="text;html=1;strokeColor=none;fillColor=none;align=center;verticalAlign=middle;whiteSpace=wrap;rounded=0;fontSize=16;" vertex="1" parent="-kxi8PNOjZ81SoGn5OAi-1">
          <mxGeometry x="40" y="280" width="360" height="30" as="geometry" />
        </mxCell>
        <mxCell id="-kxi8PNOjZ81SoGn5OAi-77" value="" style="triangle;whiteSpace=wrap;html=1;fontSize=16;strokeWidth=1;fillColor=#6d8764;fontColor=#ffffff;strokeColor=#3A5431;" vertex="1" parent="-kxi8PNOjZ81SoGn5OAi-1">
          <mxGeometry x="630" y="90" width="20" height="30" as="geometry" />
        </mxCell>
        <mxCell id="-kxi8PNOjZ81SoGn5OAi-78" value="" style="ellipse;whiteSpace=wrap;html=1;aspect=fixed;fontSize=16;strokeWidth=1;" vertex="1" parent="-kxi8PNOjZ81SoGn5OAi-1">
          <mxGeometry x="540" y="90" width="30" height="30" as="geometry" />
        </mxCell>
        <mxCell id="-kxi8PNOjZ81SoGn5OAi-79" value="" style="ellipse;whiteSpace=wrap;html=1;aspect=fixed;fontSize=16;strokeWidth=1;" vertex="1" parent="-kxi8PNOjZ81SoGn5OAi-1">
          <mxGeometry x="700" y="90" width="30" height="30" as="geometry" />
        </mxCell>
        <mxCell id="-kxi8PNOjZ81SoGn5OAi-80" value="" style="endArrow=none;html=1;rounded=0;fontSize=16;strokeWidth=1;exitX=1;exitY=0.5;exitDx=0;exitDy=0;entryX=0;entryY=0.5;entryDx=0;entryDy=0;" edge="1" parent="-kxi8PNOjZ81SoGn5OAi-1" source="-kxi8PNOjZ81SoGn5OAi-78" target="-kxi8PNOjZ81SoGn5OAi-77">
          <mxGeometry width="50" height="50" relative="1" as="geometry">
            <mxPoint x="460" y="320" as="sourcePoint" />
            <mxPoint x="510" y="270" as="targetPoint" />
          </mxGeometry>
        </mxCell>
        <mxCell id="-kxi8PNOjZ81SoGn5OAi-81" value="" style="endArrow=none;html=1;rounded=0;fontSize=16;strokeWidth=1;exitX=1;exitY=0.5;exitDx=0;exitDy=0;entryX=0;entryY=0.5;entryDx=0;entryDy=0;" edge="1" parent="-kxi8PNOjZ81SoGn5OAi-1" source="-kxi8PNOjZ81SoGn5OAi-77" target="-kxi8PNOjZ81SoGn5OAi-79">
          <mxGeometry width="50" height="50" relative="1" as="geometry">
            <mxPoint x="460" y="320" as="sourcePoint" />
            <mxPoint x="510" y="270" as="targetPoint" />
          </mxGeometry>
        </mxCell>
        <mxCell id="-kxi8PNOjZ81SoGn5OAi-82" value="" style="triangle;whiteSpace=wrap;html=1;fontSize=16;strokeWidth=1;fillColor=#6d8764;fontColor=#ffffff;strokeColor=#3A5431;" vertex="1" parent="-kxi8PNOjZ81SoGn5OAi-1">
          <mxGeometry x="630" y="250" width="20" height="30" as="geometry" />
        </mxCell>
        <mxCell id="-kxi8PNOjZ81SoGn5OAi-83" value="" style="ellipse;whiteSpace=wrap;html=1;aspect=fixed;fontSize=16;strokeWidth=1;" vertex="1" parent="-kxi8PNOjZ81SoGn5OAi-1">
          <mxGeometry x="540" y="250" width="30" height="30" as="geometry" />
        </mxCell>
        <mxCell id="-kxi8PNOjZ81SoGn5OAi-84" value="" style="ellipse;whiteSpace=wrap;html=1;aspect=fixed;fontSize=16;strokeWidth=1;" vertex="1" parent="-kxi8PNOjZ81SoGn5OAi-1">
          <mxGeometry x="700" y="250" width="30" height="30" as="geometry" />
        </mxCell>
        <mxCell id="-kxi8PNOjZ81SoGn5OAi-85" value="" style="endArrow=none;html=1;rounded=0;fontSize=16;strokeWidth=1;exitX=1;exitY=0.5;exitDx=0;exitDy=0;entryX=0;entryY=0.5;entryDx=0;entryDy=0;" edge="1" parent="-kxi8PNOjZ81SoGn5OAi-1" source="-kxi8PNOjZ81SoGn5OAi-83" target="-kxi8PNOjZ81SoGn5OAi-82">
          <mxGeometry width="50" height="50" relative="1" as="geometry">
            <mxPoint x="460" y="480" as="sourcePoint" />
            <mxPoint x="510" y="430" as="targetPoint" />
          </mxGeometry>
        </mxCell>
        <mxCell id="-kxi8PNOjZ81SoGn5OAi-86" value="" style="endArrow=none;html=1;rounded=0;fontSize=16;strokeWidth=1;exitX=1;exitY=0.5;exitDx=0;exitDy=0;entryX=0;entryY=0.5;entryDx=0;entryDy=0;" edge="1" parent="-kxi8PNOjZ81SoGn5OAi-1" source="-kxi8PNOjZ81SoGn5OAi-82" target="-kxi8PNOjZ81SoGn5OAi-84">
          <mxGeometry width="50" height="50" relative="1" as="geometry">
            <mxPoint x="460" y="480" as="sourcePoint" />
            <mxPoint x="510" y="430" as="targetPoint" />
          </mxGeometry>
        </mxCell>
        <mxCell id="-kxi8PNOjZ81SoGn5OAi-87" value="" style="ellipse;whiteSpace=wrap;html=1;aspect=fixed;fontSize=16;strokeWidth=1;" vertex="1" parent="-kxi8PNOjZ81SoGn5OAi-1">
          <mxGeometry x="620" y="170" width="30" height="30" as="geometry" />
        </mxCell>
        <mxCell id="-kxi8PNOjZ81SoGn5OAi-88" value="" style="ellipse;whiteSpace=wrap;html=1;aspect=fixed;fontSize=16;strokeWidth=1;" vertex="1" parent="-kxi8PNOjZ81SoGn5OAi-1">
          <mxGeometry x="824" y="170" width="30" height="30" as="geometry" />
        </mxCell>
        <mxCell id="-kxi8PNOjZ81SoGn5OAi-89" value="" style="ellipse;whiteSpace=wrap;html=1;aspect=fixed;fontSize=16;strokeWidth=1;" vertex="1" parent="-kxi8PNOjZ81SoGn5OAi-1">
          <mxGeometry x="450" y="170" width="30" height="30" as="geometry" />
        </mxCell>
        <mxCell id="-kxi8PNOjZ81SoGn5OAi-90" value="" style="triangle;whiteSpace=wrap;html=1;fontSize=16;strokeWidth=1;fillColor=#6d8764;fontColor=#ffffff;strokeColor=#3A5431;" vertex="1" parent="-kxi8PNOjZ81SoGn5OAi-1">
          <mxGeometry x="520" y="170" width="20" height="30" as="geometry" />
        </mxCell>
        <mxCell id="-kxi8PNOjZ81SoGn5OAi-91" value="" style="triangle;whiteSpace=wrap;html=1;fontSize=16;strokeWidth=1;fillColor=#6d8764;fontColor=#ffffff;strokeColor=#3A5431;" vertex="1" parent="-kxi8PNOjZ81SoGn5OAi-1">
          <mxGeometry x="540" y="170" width="20" height="30" as="geometry" />
        </mxCell>
        <mxCell id="-kxi8PNOjZ81SoGn5OAi-92" value="" style="triangle;whiteSpace=wrap;html=1;fontSize=16;strokeWidth=1;fillColor=#6d8764;fontColor=#ffffff;strokeColor=#3A5431;" vertex="1" parent="-kxi8PNOjZ81SoGn5OAi-1">
          <mxGeometry x="560" y="170" width="20" height="30" as="geometry" />
        </mxCell>
        <mxCell id="-kxi8PNOjZ81SoGn5OAi-93" value="" style="triangle;whiteSpace=wrap;html=1;fontSize=16;strokeWidth=1;fillColor=#6d8764;fontColor=#ffffff;strokeColor=#3A5431;" vertex="1" parent="-kxi8PNOjZ81SoGn5OAi-1">
          <mxGeometry x="730" y="170" width="20" height="30" as="geometry" />
        </mxCell>
        <mxCell id="-kxi8PNOjZ81SoGn5OAi-94" value="" style="triangle;whiteSpace=wrap;html=1;fontSize=16;strokeWidth=1;rotation=-45;fillColor=#6d8764;fontColor=#ffffff;strokeColor=#3A5431;" vertex="1" parent="-kxi8PNOjZ81SoGn5OAi-1">
          <mxGeometry x="670" y="130" width="20" height="30" as="geometry" />
        </mxCell>
        <mxCell id="-kxi8PNOjZ81SoGn5OAi-95" value="" style="triangle;whiteSpace=wrap;html=1;fontSize=16;strokeWidth=1;rotation=45;fillColor=#6d8764;fontColor=#ffffff;strokeColor=#3A5431;" vertex="1" parent="-kxi8PNOjZ81SoGn5OAi-1">
          <mxGeometry x="670" y="210" width="20" height="30" as="geometry" />
        </mxCell>
        <mxCell id="-kxi8PNOjZ81SoGn5OAi-96" value="" style="triangle;whiteSpace=wrap;html=1;fontSize=16;strokeWidth=1;rotation=45;" vertex="1" parent="-kxi8PNOjZ81SoGn5OAi-1">
          <mxGeometry x="590" y="140" width="20" height="30" as="geometry" />
        </mxCell>
        <mxCell id="-kxi8PNOjZ81SoGn5OAi-97" value="" style="endArrow=none;html=1;rounded=0;fontSize=16;strokeWidth=1;entryX=0;entryY=0.5;entryDx=0;entryDy=0;exitX=1;exitY=0.5;exitDx=0;exitDy=0;" edge="1" parent="-kxi8PNOjZ81SoGn5OAi-1" source="-kxi8PNOjZ81SoGn5OAi-89" target="-kxi8PNOjZ81SoGn5OAi-90">
          <mxGeometry width="50" height="50" relative="1" as="geometry">
            <mxPoint x="500" y="230" as="sourcePoint" />
            <mxPoint x="710" y="275" as="targetPoint" />
          </mxGeometry>
        </mxCell>
        <mxCell id="-kxi8PNOjZ81SoGn5OAi-98" value="" style="endArrow=none;html=1;rounded=0;fontSize=16;strokeWidth=1;exitX=1;exitY=0.5;exitDx=0;exitDy=0;entryX=0;entryY=1;entryDx=0;entryDy=0;" edge="1" parent="-kxi8PNOjZ81SoGn5OAi-1" source="-kxi8PNOjZ81SoGn5OAi-104" target="-kxi8PNOjZ81SoGn5OAi-88">
          <mxGeometry width="50" height="50" relative="1" as="geometry">
            <mxPoint x="670" y="285" as="sourcePoint" />
            <mxPoint x="720" y="285" as="targetPoint" />
          </mxGeometry>
        </mxCell>
        <mxCell id="-kxi8PNOjZ81SoGn5OAi-99" value="" style="endArrow=none;html=1;rounded=0;fontSize=16;strokeWidth=1;entryX=0;entryY=0.5;entryDx=0;entryDy=0;exitX=1.122;exitY=0.278;exitDx=0;exitDy=0;exitPerimeter=0;" edge="1" parent="-kxi8PNOjZ81SoGn5OAi-1" source="-kxi8PNOjZ81SoGn5OAi-84" target="-kxi8PNOjZ81SoGn5OAi-105">
          <mxGeometry width="50" height="50" relative="1" as="geometry">
            <mxPoint x="750" y="260" as="sourcePoint" />
            <mxPoint x="730" y="295" as="targetPoint" />
          </mxGeometry>
        </mxCell>
        <mxCell id="-kxi8PNOjZ81SoGn5OAi-100" value="" style="triangle;whiteSpace=wrap;html=1;fontSize=16;strokeWidth=1;rotation=-45;fillColor=#6d8764;fontColor=#ffffff;strokeColor=#3A5431;" vertex="1" parent="-kxi8PNOjZ81SoGn5OAi-1">
          <mxGeometry x="510" y="120" width="20" height="30" as="geometry" />
        </mxCell>
        <mxCell id="-kxi8PNOjZ81SoGn5OAi-101" value="" style="triangle;whiteSpace=wrap;html=1;fontSize=16;strokeWidth=1;rotation=45;fillColor=#6d8764;fontColor=#ffffff;strokeColor=#3A5431;" vertex="1" parent="-kxi8PNOjZ81SoGn5OAi-1">
          <mxGeometry x="510" y="220" width="20" height="30" as="geometry" />
        </mxCell>
        <mxCell id="-kxi8PNOjZ81SoGn5OAi-102" value="" style="triangle;whiteSpace=wrap;html=1;fontSize=16;strokeWidth=1;rotation=30;fillColor=#6d8764;fontColor=#ffffff;strokeColor=#3A5431;" vertex="1" parent="-kxi8PNOjZ81SoGn5OAi-1">
          <mxGeometry x="780" y="140" width="20" height="30" as="geometry" />
        </mxCell>
        <mxCell id="-kxi8PNOjZ81SoGn5OAi-103" value="" style="triangle;whiteSpace=wrap;html=1;fontSize=16;strokeWidth=1;rotation=30;fillColor=#6d8764;fontColor=#ffffff;strokeColor=#3A5431;" vertex="1" parent="-kxi8PNOjZ81SoGn5OAi-1">
          <mxGeometry x="760" y="130" width="20" height="30" as="geometry" />
        </mxCell>
        <mxCell id="-kxi8PNOjZ81SoGn5OAi-104" value="" style="triangle;whiteSpace=wrap;html=1;fontSize=16;strokeWidth=1;rotation=-30;fillColor=#6d8764;fontColor=#ffffff;strokeColor=#3A5431;" vertex="1" parent="-kxi8PNOjZ81SoGn5OAi-1">
          <mxGeometry x="780" y="210" width="20" height="30" as="geometry" />
        </mxCell>
        <mxCell id="-kxi8PNOjZ81SoGn5OAi-105" value="" style="triangle;whiteSpace=wrap;html=1;fontSize=16;strokeWidth=1;rotation=-30;fillColor=#6d8764;fontColor=#ffffff;strokeColor=#3A5431;" vertex="1" parent="-kxi8PNOjZ81SoGn5OAi-1">
          <mxGeometry x="760" y="220" width="20" height="30" as="geometry" />
        </mxCell>
        <mxCell id="-kxi8PNOjZ81SoGn5OAi-106" value="" style="endArrow=none;html=1;rounded=0;fontSize=16;strokeWidth=1;exitX=0;exitY=0.5;exitDx=0;exitDy=0;entryX=1;entryY=1;entryDx=0;entryDy=0;" edge="1" parent="-kxi8PNOjZ81SoGn5OAi-1" source="-kxi8PNOjZ81SoGn5OAi-103" target="-kxi8PNOjZ81SoGn5OAi-79">
          <mxGeometry width="50" height="50" relative="1" as="geometry">
            <mxPoint x="460" y="320" as="sourcePoint" />
            <mxPoint x="510" y="270" as="targetPoint" />
          </mxGeometry>
        </mxCell>
        <mxCell id="-kxi8PNOjZ81SoGn5OAi-107" value="" style="endArrow=none;html=1;rounded=0;fontSize=16;strokeWidth=1;exitX=0;exitY=0;exitDx=0;exitDy=0;entryX=1;entryY=0.5;entryDx=0;entryDy=0;" edge="1" parent="-kxi8PNOjZ81SoGn5OAi-1" source="-kxi8PNOjZ81SoGn5OAi-88" target="-kxi8PNOjZ81SoGn5OAi-102">
          <mxGeometry width="50" height="50" relative="1" as="geometry">
            <mxPoint x="460" y="320" as="sourcePoint" />
            <mxPoint x="510" y="270" as="targetPoint" />
          </mxGeometry>
        </mxCell>
        <mxCell id="-kxi8PNOjZ81SoGn5OAi-108" value="" style="endArrow=none;html=1;rounded=0;fontSize=16;strokeWidth=1;exitX=0;exitY=0.5;exitDx=0;exitDy=0;entryX=1;entryY=0.5;entryDx=0;entryDy=0;" edge="1" parent="-kxi8PNOjZ81SoGn5OAi-1" source="-kxi8PNOjZ81SoGn5OAi-93" target="-kxi8PNOjZ81SoGn5OAi-87">
          <mxGeometry width="50" height="50" relative="1" as="geometry">
            <mxPoint x="460" y="320" as="sourcePoint" />
            <mxPoint x="510" y="270" as="targetPoint" />
          </mxGeometry>
        </mxCell>
        <mxCell id="-kxi8PNOjZ81SoGn5OAi-109" value="" style="endArrow=none;html=1;rounded=0;fontSize=16;strokeWidth=1;exitX=0;exitY=0.5;exitDx=0;exitDy=0;entryX=1;entryY=0.5;entryDx=0;entryDy=0;" edge="1" parent="-kxi8PNOjZ81SoGn5OAi-1" source="-kxi8PNOjZ81SoGn5OAi-88" target="-kxi8PNOjZ81SoGn5OAi-93">
          <mxGeometry width="50" height="50" relative="1" as="geometry">
            <mxPoint x="460" y="320" as="sourcePoint" />
            <mxPoint x="510" y="270" as="targetPoint" />
          </mxGeometry>
        </mxCell>
        <mxCell id="-kxi8PNOjZ81SoGn5OAi-110" value="" style="endArrow=none;html=1;rounded=0;fontSize=16;strokeWidth=1;entryX=0;entryY=0.5;entryDx=0;entryDy=0;exitX=1;exitY=0;exitDx=0;exitDy=0;" edge="1" parent="-kxi8PNOjZ81SoGn5OAi-1" source="-kxi8PNOjZ81SoGn5OAi-87" target="-kxi8PNOjZ81SoGn5OAi-94">
          <mxGeometry width="50" height="50" relative="1" as="geometry">
            <mxPoint x="673" y="170" as="sourcePoint" />
            <mxPoint x="510" y="270" as="targetPoint" />
          </mxGeometry>
        </mxCell>
        <mxCell id="-kxi8PNOjZ81SoGn5OAi-111" value="" style="endArrow=none;html=1;rounded=0;fontSize=16;strokeWidth=1;exitX=1;exitY=1;exitDx=0;exitDy=0;entryX=0;entryY=0.5;entryDx=0;entryDy=0;" edge="1" parent="-kxi8PNOjZ81SoGn5OAi-1" source="-kxi8PNOjZ81SoGn5OAi-87" target="-kxi8PNOjZ81SoGn5OAi-95">
          <mxGeometry width="50" height="50" relative="1" as="geometry">
            <mxPoint x="460" y="320" as="sourcePoint" />
            <mxPoint x="510" y="270" as="targetPoint" />
          </mxGeometry>
        </mxCell>
        <mxCell id="-kxi8PNOjZ81SoGn5OAi-112" value="" style="endArrow=none;html=1;rounded=0;fontSize=16;strokeWidth=1;exitX=0;exitY=0;exitDx=0;exitDy=0;entryX=1;entryY=0.5;entryDx=0;entryDy=0;" edge="1" parent="-kxi8PNOjZ81SoGn5OAi-1" source="-kxi8PNOjZ81SoGn5OAi-84" target="-kxi8PNOjZ81SoGn5OAi-95">
          <mxGeometry width="50" height="50" relative="1" as="geometry">
            <mxPoint x="460" y="320" as="sourcePoint" />
            <mxPoint x="510" y="270" as="targetPoint" />
          </mxGeometry>
        </mxCell>
        <mxCell id="-kxi8PNOjZ81SoGn5OAi-113" value="" style="endArrow=none;html=1;rounded=0;fontSize=16;strokeWidth=1;exitX=0;exitY=1;exitDx=0;exitDy=0;entryX=1;entryY=0.5;entryDx=0;entryDy=0;" edge="1" parent="-kxi8PNOjZ81SoGn5OAi-1" source="-kxi8PNOjZ81SoGn5OAi-79" target="-kxi8PNOjZ81SoGn5OAi-94">
          <mxGeometry width="50" height="50" relative="1" as="geometry">
            <mxPoint x="460" y="320" as="sourcePoint" />
            <mxPoint x="715" y="140" as="targetPoint" />
          </mxGeometry>
        </mxCell>
        <mxCell id="-kxi8PNOjZ81SoGn5OAi-114" value="" style="endArrow=none;html=1;rounded=0;fontSize=16;strokeWidth=1;exitX=1;exitY=1;exitDx=0;exitDy=0;entryX=0;entryY=0.5;entryDx=0;entryDy=0;" edge="1" parent="-kxi8PNOjZ81SoGn5OAi-1" source="-kxi8PNOjZ81SoGn5OAi-89" target="-kxi8PNOjZ81SoGn5OAi-101">
          <mxGeometry width="50" height="50" relative="1" as="geometry">
            <mxPoint x="460" y="320" as="sourcePoint" />
            <mxPoint x="510" y="270" as="targetPoint" />
          </mxGeometry>
        </mxCell>
        <mxCell id="-kxi8PNOjZ81SoGn5OAi-115" value="" style="endArrow=none;html=1;rounded=0;fontSize=16;strokeWidth=1;exitX=0;exitY=0.5;exitDx=0;exitDy=0;entryX=1;entryY=0;entryDx=0;entryDy=0;" edge="1" parent="-kxi8PNOjZ81SoGn5OAi-1" source="-kxi8PNOjZ81SoGn5OAi-100" target="-kxi8PNOjZ81SoGn5OAi-89">
          <mxGeometry width="50" height="50" relative="1" as="geometry">
            <mxPoint x="460" y="320" as="sourcePoint" />
            <mxPoint x="510" y="270" as="targetPoint" />
          </mxGeometry>
        </mxCell>
        <mxCell id="-kxi8PNOjZ81SoGn5OAi-116" value="" style="endArrow=none;html=1;rounded=0;fontSize=16;strokeWidth=1;exitX=0;exitY=1;exitDx=0;exitDy=0;entryX=1;entryY=0.5;entryDx=0;entryDy=0;" edge="1" parent="-kxi8PNOjZ81SoGn5OAi-1" source="-kxi8PNOjZ81SoGn5OAi-78" target="-kxi8PNOjZ81SoGn5OAi-100">
          <mxGeometry width="50" height="50" relative="1" as="geometry">
            <mxPoint x="460" y="320" as="sourcePoint" />
            <mxPoint x="510" y="270" as="targetPoint" />
          </mxGeometry>
        </mxCell>
        <mxCell id="-kxi8PNOjZ81SoGn5OAi-117" value="" style="endArrow=none;html=1;rounded=0;fontSize=16;strokeWidth=1;exitX=0;exitY=0.5;exitDx=0;exitDy=0;entryX=1;entryY=0.5;entryDx=0;entryDy=0;" edge="1" parent="-kxi8PNOjZ81SoGn5OAi-1" source="-kxi8PNOjZ81SoGn5OAi-87" target="-kxi8PNOjZ81SoGn5OAi-92">
          <mxGeometry width="50" height="50" relative="1" as="geometry">
            <mxPoint x="460" y="320" as="sourcePoint" />
            <mxPoint x="510" y="270" as="targetPoint" />
          </mxGeometry>
        </mxCell>
        <mxCell id="-kxi8PNOjZ81SoGn5OAi-118" value="" style="endArrow=none;html=1;rounded=0;fontSize=16;strokeWidth=1;exitX=1;exitY=1;exitDx=0;exitDy=0;entryX=0;entryY=0.5;entryDx=0;entryDy=0;" edge="1" parent="-kxi8PNOjZ81SoGn5OAi-1" source="-kxi8PNOjZ81SoGn5OAi-78" target="-kxi8PNOjZ81SoGn5OAi-96">
          <mxGeometry width="50" height="50" relative="1" as="geometry">
            <mxPoint x="460" y="320" as="sourcePoint" />
            <mxPoint x="510" y="270" as="targetPoint" />
          </mxGeometry>
        </mxCell>
        <mxCell id="-kxi8PNOjZ81SoGn5OAi-119" value="" style="endArrow=none;html=1;rounded=0;fontSize=16;strokeWidth=1;exitX=1;exitY=0.5;exitDx=0;exitDy=0;entryX=0;entryY=0;entryDx=0;entryDy=0;" edge="1" parent="-kxi8PNOjZ81SoGn5OAi-1" source="-kxi8PNOjZ81SoGn5OAi-96" target="-kxi8PNOjZ81SoGn5OAi-87">
          <mxGeometry width="50" height="50" relative="1" as="geometry">
            <mxPoint x="460" y="320" as="sourcePoint" />
            <mxPoint x="510" y="270" as="targetPoint" />
          </mxGeometry>
        </mxCell>
        <mxCell id="-kxi8PNOjZ81SoGn5OAi-120" value="" style="endArrow=none;html=1;rounded=0;fontSize=16;strokeWidth=1;exitX=1;exitY=0.5;exitDx=0;exitDy=0;entryX=0;entryY=0;entryDx=0;entryDy=0;" edge="1" parent="-kxi8PNOjZ81SoGn5OAi-1" source="-kxi8PNOjZ81SoGn5OAi-101" target="-kxi8PNOjZ81SoGn5OAi-83">
          <mxGeometry width="50" height="50" relative="1" as="geometry">
            <mxPoint x="460" y="320" as="sourcePoint" />
            <mxPoint x="510" y="270" as="targetPoint" />
          </mxGeometry>
        </mxCell>
        <mxCell id="-kxi8PNOjZ81SoGn5OAi-121" value="Exemple de flot&amp;nbsp; maximum" style="text;html=1;strokeColor=none;fillColor=none;align=center;verticalAlign=middle;whiteSpace=wrap;rounded=0;fontSize=16;" vertex="1" parent="-kxi8PNOjZ81SoGn5OAi-1">
          <mxGeometry x="450" y="280" width="360" height="30" as="geometry" />
        </mxCell>
      </root>
    </mxGraphModel>
  </diagram>
</mxfile>
